<?xml version="1.0" encoding="UTF-8"?>
<svg version="1.1" xmlns="http://www.w3.org/2000/svg" width="1000" height="1000">
<path d="M0 0 C250.8 0 501.6 0 760 0 C760 200.97 760 401.94 760 609 C509.2 609 258.4 609 0 609 C0 408.03 0 207.06 0 0 Z " fill="#D10214" transform="translate(119,119)"/>
<path d="M0 0 C6.81772329 4.83715563 13.31541853 10.76763171 15.796875 18.984375 C16.48083585 24.19957646 15.79834575 27.18063135 13.75390625 31.9765625 C11.05059264 39.20524955 11.6604514 45.88443666 12.21679688 53.46289062 C12.5207562 61.05222428 12.5207562 61.05222428 10.33056641 63.87255859 C8.47265625 65.40234375 8.47265625 65.40234375 6.53808594 66.75317383 C2.30412955 69.7469823 0.9503896 74.92933519 -0.765625 79.609375 C-2.0421693 83.08507507 -3.14487408 85.89699862 -5.203125 88.984375 C-7.44970703 89.32495117 -7.44970703 89.32495117 -10.2109375 89.27734375 C-11.19707031 89.26767578 -12.18320312 89.25800781 -13.19921875 89.24804688 C-14.23175781 89.22291016 -15.26429688 89.19777344 -16.328125 89.171875 C-17.88853516 89.15157227 -17.88853516 89.15157227 -19.48046875 89.13085938 C-22.05520127 89.09542728 -24.6289083 89.04602721 -27.203125 88.984375 C-37.75050099 111.0985828 -37.75050099 111.0985828 -45.46875 134.2890625 C-46.19994229 136.97269377 -47.08370224 139.55179707 -48.015625 142.171875 C-51.45613802 152.22566986 -53.70484944 162.66584609 -56.203125 172.984375 C-55.04296875 173.03335938 -53.8828125 173.08234375 -52.6875 173.1328125 C-38.51934838 173.78892869 -38.51934838 173.78892869 -32.515625 174.921875 C-27.08782656 175.93545576 -21.70058312 176.37835511 -16.203125 176.796875 C-5.44088295 177.64804797 5.23014776 179.01565049 15.921875 180.484375 C16.72189941 180.59206207 17.52192383 180.69974915 18.34619141 180.81069946 C20.64593835 181.12170515 22.94418039 181.44204037 25.2421875 181.765625 C25.93087921 181.85833176 26.61957092 181.95103851 27.32913208 182.04655457 C31.05382365 182.58523429 34.46397626 183.18991789 37.796875 184.984375 C38.609375 188.109375 38.609375 188.109375 38.796875 190.984375 C39.38210938 191.01015625 39.96734375 191.0359375 40.5703125 191.0625 C58.28459764 192.23281313 76.36422086 197.41130157 92.3046875 205.1640625 C96.94172457 207.2609152 101.07072083 207.56894551 106.109375 207.609375 C112.71185828 207.79405082 118.96326402 208.31717039 125.44921875 209.6796875 C127.74296829 210.14730986 127.74296829 210.14730986 129.6484375 209.38671875 C133.10858407 208.73872766 136.03397782 210.2091319 139.234375 211.421875 C139.97300781 211.69338379 140.71164062 211.96489258 141.47265625 212.24462891 C143.07469293 212.83641114 144.67472518 213.4336415 146.27294922 214.03564453 C148.83960787 215.00043806 151.41327547 215.94445595 153.98828125 216.88671875 C162.14961992 219.90309522 170.1627654 223.04157046 177.984375 226.859375 C213.72462641 244.10886161 251.65394771 252.87055335 291.26147461 253.38574219 C293.23053249 253.41337809 295.19928897 253.46035061 297.16796875 253.5078125 C298.32224365 253.52763184 299.47651855 253.54745117 300.66577148 253.56787109 C304.39827165 254.06437365 307.11251029 255.30001029 309.796875 257.984375 C309.83768283 259.98395864 309.83941856 261.98482754 309.796875 263.984375 C308.476875 264.644375 307.156875 265.304375 305.796875 265.984375 C305.796875 267.304375 305.796875 268.624375 305.796875 269.984375 C303.03763315 271.78849467 301.90715397 271.9970995 298.546875 271.609375 C297.185625 271.3 297.185625 271.3 295.796875 270.984375 C295.796875 272.304375 295.796875 273.624375 295.796875 274.984375 C292.796875 276.984375 292.796875 276.984375 289.52832031 276.94262695 C285.33849697 276.98950341 282.88363292 277.91290008 279.09375 279.65234375 C278.4892804 279.92903397 277.88481079 280.20572418 277.26202393 280.49079895 C275.99517859 281.07522494 274.73141379 281.66637149 273.47070312 282.26391602 C271.54686471 283.17187986 269.61086813 284.04877897 267.671875 284.92382812 C266.43665522 285.4981867 265.20224947 286.07429987 263.96875 286.65234375 C262.8559668 287.17078857 261.74318359 287.6892334 260.59667969 288.22338867 C257.53357669 290.1499811 256.36235053 291.7645856 254.796875 294.984375 C252.486875 294.654375 250.176875 294.324375 247.796875 293.984375 C247.796875 295.304375 247.796875 296.624375 247.796875 297.984375 C244.30816495 300.11683835 241.41137391 300.31253108 237.359375 300.359375 C236.24691406 300.38773437 235.13445312 300.41609375 233.98828125 300.4453125 C230.10286045 299.88413789 228.52768186 298.76377273 225.796875 295.984375 C224.72265625 293.9765625 224.72265625 293.9765625 224.109375 291.859375 C223.8825 291.08464844 223.655625 290.30992187 223.421875 289.51171875 C222.39590004 285.36293249 221.5435117 281.19189242 220.796875 276.984375 C202.51419546 269.80189375 181.81125162 271.61215724 162.4977417 271.46868896 C159.02035917 271.4422316 155.5431018 271.41200275 152.06584167 271.37243652 C149.48137827 271.3438021 146.89680866 271.32314303 144.31221008 271.31213379 C123.67934572 271.0792874 123.67934572 271.0792874 115.796875 265.984375 C114.683125 265.530625 113.569375 265.076875 112.421875 264.609375 C108.98029795 263.06659908 106.33632449 261.35357671 103.375 259.0703125 C99.80939193 256.61675051 96.30500624 256.83238396 92.12231445 256.77905273 C91.44888 256.76915314 90.77544556 256.75925354 90.081604 256.74905396 C87.85782373 256.71749111 85.6340221 256.69270225 83.41015625 256.66796875 C81.86744128 256.64739471 80.3247319 256.62639812 78.7820282 256.60499573 C74.72309898 256.5498215 70.66411927 256.50039175 66.60510254 256.45214844 C62.46260082 256.40189946 58.32017234 256.34623113 54.17773438 256.29101562 C46.05084319 256.18349091 37.9238907 256.08203334 29.796875 255.984375 C29.466875 257.304375 29.136875 258.624375 28.796875 259.984375 C-19.218125 260.479375 -19.218125 260.479375 -68.203125 260.984375 C-65.233125 262.634375 -62.263125 264.284375 -59.203125 265.984375 C-56.75545237 269.65588395 -56.55832499 272.88684588 -56.1328125 277.16015625 C-56.00388107 278.36432442 -56.00388107 278.36432442 -55.87234497 279.59281921 C-55.69209405 281.29120748 -55.51583152 282.99002308 -55.34326172 284.68920898 C-55.08009144 287.27753468 -54.80482934 289.86434575 -54.52734375 292.45117188 C-54.35345133 294.10409157 -54.1802518 295.75708433 -54.0078125 297.41015625 C-53.92659149 298.17910721 -53.84537048 298.94805817 -53.76168823 299.74031067 C-53.34837001 303.84180569 -53.11884852 307.85523674 -53.203125 311.984375 C-54.853125 312.314375 -56.503125 312.644375 -58.203125 312.984375 C-58.07035156 314.0259375 -57.93757812 315.0675 -57.80078125 316.140625 C-57.62214598 317.58851086 -57.44377538 319.0364294 -57.265625 320.484375 C-57.17861328 321.16113281 -57.09160156 321.83789062 -57.00195312 322.53515625 C-55.45631221 335.24375931 -54.98013071 348.05753032 -54.90795898 360.85107422 C-54.89628581 362.28769661 -54.87560131 363.72427079 -54.84643555 365.16064453 C-54.65874594 374.48640658 -54.78088423 381.36421078 -60.74609375 388.9453125 C-68.28032487 395.4236775 -77.32579236 400.54570868 -86.203125 404.984375 C-86.46351563 405.76683594 -86.72390625 406.54929687 -86.9921875 407.35546875 C-89.33316245 412.43764986 -95.27441397 413.9178655 -100.203125 415.984375 C-103.25535386 417.08014412 -106.32019148 418.08726215 -109.4140625 419.05859375 C-111.88419447 419.8785115 -114.16368768 420.81637637 -116.515625 421.921875 C-121.67468645 424.31311881 -127.05480251 425.99470478 -132.45703125 427.73828125 C-135.68865635 428.81324309 -138.87115672 429.97543221 -142.05723572 431.17686462 C-144.07780818 431.93721756 -146.10145134 432.68843932 -148.12695312 433.43554688 C-192.8979236 449.17806333 -192.8979236 449.17806333 -232.203125 474.984375 C-232.84507812 475.48324219 -233.48703125 475.98210937 -234.1484375 476.49609375 C-240.34904396 481.34813782 -244.55463515 487.93860034 -248.83203125 494.47265625 C-252.43160925 499.76394193 -252.43160925 499.76394193 -256.265625 500.859375 C-259.48499855 499.90041267 -261.21393947 498.67743528 -263.23828125 495.98046875 C-264.78850686 492.77332183 -264.91511673 489.58000117 -265.0625 486.05859375 C-264.97405805 483.99422274 -264.97405805 483.99422274 -266.203125 482.984375 C-266.24393283 480.98479136 -266.24566856 478.98392246 -266.203125 476.984375 C-265.213125 476.654375 -264.223125 476.324375 -263.203125 475.984375 C-263.22632813 475.08074219 -263.24953125 474.17710937 -263.2734375 473.24609375 C-263.29148437 472.06660156 -263.30953125 470.88710938 -263.328125 469.671875 C-263.35132813 468.50011719 -263.37453125 467.32835937 -263.3984375 466.12109375 C-263.203125 462.984375 -263.203125 462.984375 -261.203125 459.984375 C-260.213125 459.984375 -259.223125 459.984375 -258.203125 459.984375 C-257.88021484 458.96923828 -257.88021484 458.96923828 -257.55078125 457.93359375 C-255.78359088 454.0662641 -253.31697728 451.07634892 -250.640625 447.796875 C-245.62465257 441.86058344 -245.62465257 441.86058344 -243.890625 434.546875 C-243.65625 432.09375 -243.65625 432.09375 -243.203125 429.984375 C-241.140625 428.296875 -241.140625 428.296875 -239.203125 426.984375 C-239.16146737 424.98480889 -239.16146737 422.98394111 -239.203125 420.984375 C-237.18611681 418.01194188 -234.49526243 417.19726774 -231.203125 415.984375 C-230.873125 415.654375 -230.543125 415.324375 -230.203125 414.984375 C-224.89259394 414.39431599 -221.91454842 414.96497335 -217.203125 417.484375 C-209.55466439 421.21273324 -200.91095782 421.4492961 -192.70703125 419.34375 C-185.15646924 415.74688492 -178.99990833 408.49807799 -173.04589844 402.75488281 C-133.88184975 365.12667917 -133.88184975 365.12667917 -112.203125 361.984375 C-112.68523437 360.83839844 -113.16734375 359.69242188 -113.6640625 358.51171875 C-114.30228746 356.98185598 -114.94029684 355.45190325 -115.578125 353.921875 C-115.89523437 353.16970703 -116.21234375 352.41753906 -116.5390625 351.64257812 C-118.41032295 347.13985767 -119.91219209 342.69426302 -121.203125 337.984375 C-121.77120397 336.17342998 -122.34747963 334.36504596 -122.9296875 332.55859375 C-123.2390625 331.59759766 -123.5484375 330.63660156 -123.8671875 329.64648438 C-124.51426418 327.64344009 -125.16272884 325.64084372 -125.8125 323.63867188 C-126.11929688 322.68412109 -126.42609375 321.72957031 -126.7421875 320.74609375 C-127.02271973 319.87944092 -127.30325195 319.01278809 -127.59228516 318.11987305 C-128.203125 315.984375 -128.203125 315.984375 -128.203125 313.984375 C-129.8428125 313.9534375 -129.8428125 313.9534375 -131.515625 313.921875 C-133.3409375 313.4578125 -133.3409375 313.4578125 -135.203125 312.984375 C-151.07271315 282.14421477 -154.75638725 236.95050012 -152.203125 202.984375 C-151.873125 201.994375 -151.543125 201.004375 -151.203125 199.984375 C-152.193125 200.644375 -153.183125 201.304375 -154.203125 201.984375 C-155.193125 201.984375 -156.183125 201.984375 -157.203125 201.984375 C-157.99395986 167.67092932 -151.18692384 132.34892719 -140.453125 99.859375 C-140.17170654 99.00706299 -139.89028809 98.15475098 -139.6003418 97.27661133 C-136.92049843 89.54700051 -136.92049843 89.54700051 -134.203125 86.984375 C-131.06640625 85.5 -131.06640625 85.5 -127.515625 84.234375 C-126.33613281 83.80640625 -125.15664063 83.3784375 -123.94140625 82.9375 C-122.58595703 82.46570313 -122.58595703 82.46570313 -121.203125 81.984375 C-124.34056084 80.41565708 -127.75787988 80.50023115 -131.2109375 80.23046875 C-132.01038788 80.16529556 -132.80983826 80.10012238 -133.6335144 80.03297424 C-135.32973331 79.89570219 -137.02612087 79.76050106 -138.72265625 79.62719727 C-141.29735267 79.42429999 -143.87132659 79.21365235 -146.4453125 79.00195312 C-148.09631659 78.86932307 -149.74735727 78.73714753 -151.3984375 78.60546875 C-152.16020294 78.54298447 -152.92196838 78.48050018 -153.70681763 78.41612244 C-162.70045399 77.32378819 -162.70045399 77.32378819 -171.0390625 79.63671875 C-172.29589844 80.76787109 -172.29589844 80.76787109 -173.578125 81.921875 C-174.51398438 82.74558594 -175.44984375 83.56929688 -176.4140625 84.41796875 C-177.33445312 85.26488281 -178.25484375 86.11179687 -179.203125 86.984375 C-180.86979167 88.484375 -182.53645833 89.984375 -184.203125 91.484375 C-185.01910156 92.22816406 -185.83507812 92.97195313 -186.67578125 93.73828125 C-189.27274893 96.04625098 -191.93716513 98.23993363 -194.640625 100.421875 C-199.40673091 104.2763207 -203.92478211 108.34125761 -208.42578125 112.5 C-211.25080916 115.02702919 -214.16904401 117.38236667 -217.140625 119.734375 C-221.59612536 123.35446904 -224.95293703 126.56078334 -226.96484375 132.0703125 C-230.15821517 140.53780415 -236.52527515 145.20438512 -244.390625 149.359375 C-251.7813001 152.68003618 -259.106741 154.04638306 -267.203125 152.984375 C-269.56640625 151.46484375 -269.56640625 151.46484375 -271.203125 149.984375 C-270.90121355 146.90350584 -270.28844191 146.05637904 -267.875 144.01953125 C-266.91078125 143.36855469 -265.9465625 142.71757812 -264.953125 142.046875 C-260.95577828 139.26588606 -257.46770219 136.58666707 -254.203125 132.984375 C-255.14671875 133.4175 -255.14671875 133.4175 -256.109375 133.859375 C-261.79973458 136.32748277 -266.00896821 137.44320143 -272.203125 136.984375 C-272.203125 135.004375 -272.203125 133.024375 -272.203125 130.984375 C-271.38328125 130.65824219 -270.5634375 130.33210937 -269.71875 129.99609375 C-268.64109375 129.55910156 -267.5634375 129.12210938 -266.453125 128.671875 C-264.85210937 128.02798828 -264.85210937 128.02798828 -263.21875 127.37109375 C-260.53075865 126.13503555 -258.5296465 124.77118543 -256.203125 122.984375 C-255.543125 122.984375 -254.883125 122.984375 -254.203125 122.984375 C-254.0175 122.283125 -253.831875 121.581875 -253.640625 120.859375 C-251.63634713 116.85081925 -248.97118929 114.39074875 -245.203125 111.984375 C-243.79717504 111.60839592 -242.37892287 111.27619 -240.953125 110.984375 C-234.12465327 109.03338308 -230.47934669 102.2534303 -226.515625 96.76953125 C-224.67178163 94.26168476 -222.69545927 91.87517613 -220.703125 89.484375 C-217.83903952 86.00982725 -215.03280024 82.49981089 -212.26977539 78.94506836 C-206.15156666 71.07879999 -199.79150803 63.46077557 -193.203125 55.984375 C-192.66945313 55.3754541 -192.13578125 54.7665332 -191.5859375 54.13916016 C-189.99025011 52.32731057 -188.38079135 50.52886475 -186.765625 48.734375 C-186.2816626 48.18515381 -185.7977002 47.63593262 -185.29907227 47.07006836 C-181.691655 43.11777372 -178.88720693 41.18029339 -173.52734375 40.7890625 C-172.65722656 40.81226563 -171.78710938 40.83546875 -170.890625 40.859375 C-170.00761719 40.87742188 -169.12460937 40.89546875 -168.21484375 40.9140625 C-167.55097656 40.93726563 -166.88710938 40.96046875 -166.203125 40.984375 C-165.873125 38.674375 -165.543125 36.364375 -165.203125 33.984375 C-157.6325426 32.71231956 -150.1348967 31.81471167 -142.47265625 31.43359375 C-141.24639526 31.37156769 -141.24639526 31.37156769 -139.99536133 31.30828857 C-131.43070455 30.90468319 -122.8698354 30.76353391 -114.29638672 30.74414062 C-111.70378184 30.73437747 -109.11195426 30.70315023 -106.51953125 30.671875 C-92.02748747 30.58090644 -78.22683309 32.33377151 -64.203125 35.984375 C-64.29013672 34.82035156 -64.29013672 34.82035156 -64.37890625 33.6328125 C-64.90022439 21.15096678 -61.60897169 10.49872477 -53.296875 1.0390625 C-38.00472857 -13.96778269 -16.7961631 -10.39762478 0 0 Z " fill="#FEFDFD" transform="translate(434.203125,178.015625)"/>
<path d="M0 0 C9.04298662 7.39198491 15.19311607 16.4117546 16.6875 28.1875 C17.85172029 41.92529938 14.27638075 51.84305573 5.9140625 62.7109375 C-1.19270712 70.6156602 -10.75760232 75.78489359 -21.40234375 76.56640625 C-32.6961146 77.03950322 -42.41890905 75.27247045 -51.40234375 67.94921875 C-57.40016949 62.41748172 -62.19981104 56.76890084 -65.3125 49.1875 C-65.66957031 48.47464844 -66.02664063 47.76179688 -66.39453125 47.02734375 C-67.6952357 43.00346233 -67.65374568 39.2042604 -67.625 35 C-67.61936035 34.14937988 -67.6137207 33.29875977 -67.60791016 32.42236328 C-67.38646603 20.96646653 -64.20543943 12.44169242 -56.2734375 4.0234375 C-40.44189653 -10.91303402 -17.85150384 -12.41104553 0 0 Z " fill="#FEFDFD" transform="translate(819.3125,343.8125)"/>
<path d="M0 0 C8.91 0 17.82 0 27 0 C28.299375 2.330625 29.59875 4.66125 30.9375 7.0625 C34.48876101 13.41261952 38.15415999 19.68001475 41.99194336 25.86157227 C44.39204578 29.78234606 46.20095943 33.77766161 48 38 C48.95198634 39.57176911 49.94805081 41.11830195 51 42.625 C53.137052 45.70814273 55.05988128 48.7664688 57 52 C57.33 34.84 57.66 17.68 58 0 C65.26 0 72.52 0 80 0 C80 27.39 80 54.78 80 83 C70.76 83 61.52 83 52 83 C45.34931307 71.91552178 45.34931307 71.91552178 43.1015625 67.67578125 C39.71144756 61.40020365 36.05768172 55.29473612 32.375 49.1875 C31.72015625 48.09501953 31.0653125 47.00253906 30.390625 45.87695312 C27.35747103 40.83295316 24.26774361 35.90161542 21 31 C20.67 48.16 20.34 65.32 20 83 C13.4 83 6.8 83 0 83 C0 55.61 0 28.22 0 0 Z " fill="#181816" transform="translate(288,796)"/>
<path d="M0 0 C8.188125 -0.0825 16.37625 -0.165 24.8125 -0.25 C28.65612183 -0.30462402 28.65612183 -0.30462402 32.57739258 -0.36035156 C34.64143032 -0.37204986 36.70547739 -0.38223897 38.76953125 -0.390625 C39.81443726 -0.41108887 40.85934326 -0.43155273 41.93591309 -0.45263672 C51.41917377 -0.4570697 60.53037138 1.57571424 67.5703125 8.3125 C75.24104756 17.36648236 75.37017019 29.51655694 75.3125 40.8125 C75.30686035 41.96161865 75.3012207 43.1107373 75.29541016 44.29467773 C75.1317402 55.71025226 74.52954994 67.41669239 66 76 C56.83563064 82.34336451 46.68650843 83.30987247 35.83984375 83.1953125 C34.46753601 83.19229126 34.46753601 83.19229126 33.06750488 83.18920898 C29.69078467 83.17884364 26.31413663 83.15092207 22.9375 83.125 C11.5834375 83.063125 11.5834375 83.063125 0 83 C0 55.61 0 28.22 0 0 Z M23 17 C23 33.17 23 49.34 23 66 C39.43475242 67.34164079 39.43475242 67.34164079 47 63 C48.48979053 61.23569436 48.48979053 61.23569436 49.3125 59.1875 C49.77076172 58.21876953 49.77076172 58.21876953 50.23828125 57.23046875 C53.45834527 47.80146078 53.7346576 34.34642059 50 25 C47.94744547 21.16080894 45.65812662 19.26325065 41.5625 17.625 C35.42877663 16.78476392 29.1910063 17 23 17 Z " fill="#181816" transform="translate(382,796)"/>
<path d="M0 0 C8.415 -0.061875 16.83 -0.12375 25.5 -0.1875 C28.14193359 -0.21481201 30.78386719 -0.24212402 33.50585938 -0.27026367 C35.61848494 -0.27903205 37.73111561 -0.28667515 39.84375 -0.29296875 C40.9255957 -0.30831665 42.00744141 -0.32366455 43.12207031 -0.33947754 C50.15728742 -0.34189569 56.22817328 0.12380009 62.0234375 4.54296875 C67.62006218 11.35273462 68.73400379 18.31689134 68 27 C67.23797639 31.22576728 66.71143195 33.30728994 63.625 36.3125 C61.45054081 37.71036662 59.31716724 38.87099724 57 40 C57.54269531 40.38671875 58.08539063 40.7734375 58.64453125 41.171875 C59.35996094 41.69265625 60.07539063 42.2134375 60.8125 42.75 C61.87404297 43.51570312 61.87404297 43.51570312 62.95703125 44.296875 C66.29420135 47.07891355 68.32557 49.66777905 69 54 C69.65654133 61.94307381 69.90589252 70.31354243 65 77 C59.17606846 81.18897402 52.97981949 83.13113817 45.86425781 83.11352539 C44.82930176 83.11340454 43.7943457 83.11328369 42.72802734 83.11315918 C41.64730957 83.10804321 40.5665918 83.10292725 39.453125 83.09765625 C38.45458496 83.09664917 37.45604492 83.09564209 36.42724609 83.09460449 C32.70148569 83.08937724 28.97574168 83.07541597 25.25 83.0625 C16.9175 83.041875 8.585 83.02125 0 83 C0 55.61 0 28.22 0 0 Z M21 16 C21 21.94 21 27.88 21 34 C24.41798296 34.13492038 27.83065162 34.23407458 31.25 34.3125 C32.21808594 34.35439453 33.18617188 34.39628906 34.18359375 34.43945312 C39.913853 34.6431414 39.913853 34.6431414 44.63671875 31.73046875 C45.88197652 29.23638513 46.56804613 27.75087946 46.5625 25 C46.58441406 24.360625 46.60632813 23.72125 46.62890625 23.0625 C45.55322571 19.53480233 43.96856633 18.16675507 41 16 C37.5390981 15.39884345 34.18667563 15.52676048 30.6875 15.6875 C29.29047852 15.72133789 29.29047852 15.72133789 27.86523438 15.75585938 C25.57612873 15.81455439 23.28785439 15.90422935 21 16 Z M21 48 C21 54.6 21 61.2 21 68 C24.39668836 68.1081174 27.78992439 68.18737188 31.1875 68.25 C32.14720703 68.28351563 33.10691406 68.31703125 34.09570312 68.3515625 C38.51882508 68.41278218 41.22610202 68.44957938 45.11328125 66.19140625 C47.77194992 63.10338737 48 61.04983456 48 57 C46.63539124 52.08383344 46.63539124 52.08383344 42.99609375 48.80859375 C38.7053502 47.65059647 34.60701393 47.78997317 30.1875 47.875 C27.155625 47.91625 24.12375 47.9575 21 48 Z " fill="#181816" transform="translate(119,796)"/>
<path d="M0 0 C0 5.94 0 11.88 0 18 C-2.041875 17.566875 -2.041875 17.566875 -4.125 17.125 C-21.64343914 13.03875875 -21.64343914 13.03875875 -38.703125 16.4140625 C-43.20968491 19.52573482 -45.54206506 23.04391325 -46.6875 28.43359375 C-47.90739321 38.45196675 -48.73453677 50.48691989 -42.375 58.9375 C-38.05998717 63.40772912 -33.54688236 63.92104957 -27.59765625 64.10546875 C-24.39829149 64.12283772 -21.19871782 64.06663995 -18 64 C-18 58.39 -18 52.78 -18 47 C-22.95 47 -27.9 47 -33 47 C-33 42.05 -33 37.1 -33 32 C-21.78 32 -10.56 32 1 32 C1 46.85 1 61.7 1 77 C-4.83699441 79.1888729 -9.4164829 80.63866811 -15.4375 81.25 C-16.21174316 81.33008301 -16.98598633 81.41016602 -17.78369141 81.49267578 C-32.80799352 82.85464355 -48.35587746 81.99752273 -61.02734375 72.890625 C-68.6550396 65.58012046 -70.94565777 55.28364855 -71.3359375 45.109375 C-71.72849899 17.44673188 -71.72849899 17.44673188 -62.69140625 6.7109375 C-47.64918082 -8.50498568 -18.55368533 -9.27684267 0 0 Z " fill="#181816" transform="translate(788,799)"/>
<path d="M0 0 C7.26 0 14.52 0 22 0 C22.01458252 1.72557129 22.02916504 3.45114258 22.04418945 5.22900391 C22.09593776 10.94481006 22.16124958 16.66035473 22.23571491 22.37590981 C22.2803494 25.83961259 22.31962018 29.30319964 22.34643555 32.76708984 C22.37753763 36.75383392 22.43232449 40.74008676 22.48828125 44.7265625 C22.49467117 45.96427399 22.5010611 47.20198547 22.50764465 48.47720337 C22.54330928 56.69397989 22.54330928 56.69397989 26 64 C30.90541101 66.63217176 36.5548352 66.58341051 42 66 C46.11275909 64.45771534 47.55780938 63.66328593 50 60 C50.32906294 57.27152477 50.32906294 57.27152477 50.31884766 54.15161133 C50.33871735 52.9505928 50.35858704 51.74957428 50.37905884 50.51216125 C50.39061005 49.21521835 50.40216125 47.91827545 50.4140625 46.58203125 C50.43277377 45.24109199 50.45234716 43.9001645 50.4727478 42.55924988 C50.52407965 39.0329991 50.56369948 35.50671013 50.60089111 31.98028564 C50.64092432 28.38064115 50.69201974 24.78115561 50.7421875 21.18164062 C50.83895914 14.12120402 50.92233729 7.06067642 51 0 C58.26 0 65.52 0 73 0 C73.06801315 8.18913242 73.12295203 16.37804201 73.15543652 24.56738186 C73.17103429 28.37079372 73.19216348 32.17400085 73.22631836 35.97729492 C73.25912385 39.65370229 73.2768972 43.32991383 73.28463173 47.00645638 C73.29013751 48.40296571 73.30088814 49.79946539 73.31719017 51.19589043 C73.51084949 68.48605065 73.51084949 68.48605065 67.8125 75.8125 C55.64163102 85.27873143 39.86524825 85.96798611 25.0625 84.375 C17.38617817 83.15135677 10.35398663 80.95807487 5 75.0625 C-0.9674123 65.92489991 -0.14183791 55.03795105 -0.09765625 44.53125 C-0.0962413 43.25519897 -0.09482635 41.97914795 -0.09336853 40.66442871 C-0.08874011 37.29761844 -0.07977971 33.93087793 -0.06866455 30.56408691 C-0.0583733 27.11825152 -0.0538545 23.67240888 -0.04882812 20.2265625 C-0.03783326 13.48435349 -0.02058634 6.74218627 0 0 Z " fill="#181816" transform="translate(199,796)"/>
<path d="M0 0 C9.57 0 19.14 0 29 0 C29.9178125 2.56007813 30.835625 5.12015625 31.78125 7.7578125 C32.37836544 9.42262626 32.97552674 11.08742358 33.57275391 12.75219727 C34.53863598 15.44461594 35.50433636 18.13709898 36.46942139 20.82980347 C39.82793673 30.20034671 43.19607888 39.56601265 46.64404297 48.90405273 C49.48867443 56.61315975 52.1079171 64.27245298 54.2109375 72.22265625 C54.94939947 75.0199098 54.94939947 75.0199098 56.1015625 77.68359375 C57 80 57 80 57 83 C49.74 83 42.48 83 35 83 C30 70.375 30 70.375 30 67 C19.77 67 9.54 67 -1 67 C-1.66 69.97 -2.32 72.94 -3 76 C-3.99 78.31 -4.98 80.62 -6 83 C-13.59 83 -21.18 83 -29 83 C-28.09945314 78.49726571 -26.82897909 74.35902495 -25.3046875 70.05078125 C-25.03415558 69.27929245 -24.76362366 68.50780365 -24.4848938 67.7129364 C-23.90986716 66.07586825 -23.33315689 64.43939065 -22.75488281 62.8034668 C-21.89437461 60.36734992 -21.04050544 57.92898684 -20.1875 55.49023438 C-17.10038055 46.70286127 -13.86770528 37.98986912 -10.4589386 29.32225037 C-8.00205517 23.05927603 -5.73579397 16.7420142 -3.5625 10.375 C-1.7990625 5.239375 -1.7990625 5.239375 0 0 Z M14 19 C11.14994066 25.33700346 9.10110666 31.81688727 7.25 38.5 C7.02739502 39.30163574 6.80479004 40.10327148 6.57543945 40.92919922 C5.42027768 44.90655417 5.42027768 44.90655417 5 49 C11.27 49 17.54 49 24 49 C22.39218839 41.63777506 22.39218839 41.63777506 20.2734375 34.52734375 C19.9640625 33.60888672 19.6546875 32.69042969 19.3359375 31.74414062 C19.01882813 30.81794922 18.70171875 29.89175781 18.375 28.9375 C18.05015625 27.97650391 17.7253125 27.01550781 17.390625 26.02539062 C16.59788808 23.68215356 15.80095424 21.34043824 15 19 C14.67 19 14.34 19 14 19 Z " fill="#181816" transform="translate(824,796)"/>
<path d="M0 0 C19.8 0 39.6 0 60 0 C60 5.61 60 11.22 60 17 C47.79 17 35.58 17 23 17 C23 22.28 23 27.56 23 33 C33.23 33 43.46 33 54 33 C54 38.61 54 44.22 54 50 C43.77 50 33.54 50 23 50 C23 55.28 23 60.56 23 66 C35.54 66 48.08 66 61 66 C61 71.61 61 77.22 61 83 C40.87 83 20.74 83 0 83 C0 55.61 0 28.22 0 0 Z " fill="#191917" transform="translate(469,796)"/>
<path d="M0 0 C0 6.27 0 12.54 0 19 C-2.0728125 18.566875 -2.0728125 18.566875 -4.1875 18.125 C-6.12388726 17.74429586 -8.06150611 17.3698279 -10 17 C-11.05832031 16.79761719 -12.11664062 16.59523438 -13.20703125 16.38671875 C-24.78563687 14.26778027 -24.78563687 14.26778027 -35.6875 17.625 C-37.55655803 21.007105 -36.84732194 23.3282716 -36 27 C-31.13082668 28.51662776 -26.25827609 29.94710643 -21.31640625 31.20703125 C-20.06790894 31.52667847 -20.06790894 31.52667847 -18.79418945 31.8527832 C-17.12363277 32.27775641 -15.45161947 32.69705214 -13.77807617 33.11010742 C-2.86216815 35.89294398 -2.86216815 35.89294398 0.42578125 39.61328125 C4.57390421 47.56232744 5.14546983 56.49393581 3.25 65.25 C1.03126427 71.90620719 -1.92901015 75.35364989 -7.8046875 78.921875 C-13.21287242 81.57785194 -18.40418138 82.44287771 -24.375 82.75 C-25.15794434 82.79092773 -25.94088867 82.83185547 -26.74755859 82.87402344 C-37.39516445 83.29006282 -48.20951867 82.48730394 -58 78 C-58 72.39 -58 66.78 -58 61 C-53.42687979 61.57164003 -49.29664375 62.10281848 -44.875 63.0625 C-36.99551658 64.52614706 -27.32185164 65.88084009 -20 62 C-17.7226499 59.18490007 -17.7226499 59.18490007 -18 56 C-18.70597381 52.83878921 -18.70597381 52.83878921 -21.375 51.46875 C-26.15035704 49.53390706 -30.96399843 48.53525231 -36 47.5 C-51.72335031 44.26774629 -51.72335031 44.26774629 -56 39 C-60.22250776 30.86776282 -60.20098651 21.62495941 -58.30859375 12.76171875 C-56.37713484 6.78955084 -54.32807471 3.3431057 -49 0 C-34.35982544 -7.32008728 -15.05942964 -5.01980988 0 0 Z " fill="#181816" transform="translate(598,798)"/>
<path d="M0 0 C7.26 0 14.52 0 22 0 C22 21.78 22 43.56 22 66 C33.55 66 45.1 66 57 66 C57 71.61 57 77.22 57 83 C38.19 83 19.38 83 0 83 C0 55.61 0 28.22 0 0 Z " fill="#181816" transform="translate(614,796)"/>
<path d="M0 0 C7.59 0 15.18 0 23 0 C23 27.39 23 54.78 23 83 C15.41 83 7.82 83 0 83 C0 55.61 0 28.22 0 0 Z " fill="#181816" transform="translate(682,796)"/>
<path d="M0 0 C-1.50223584 4.20626034 -4.28550034 5.73900021 -8 8 C-8.33 7.01 -8.66 6.02 -9 5 C-11.97 5 -14.94 5 -18 5 C-18 4.67 -18 4.34 -18 4 C-17.26394531 3.87882812 -16.52789062 3.75765625 -15.76953125 3.6328125 C-14.79371094 3.46523438 -13.81789062 3.29765625 -12.8125 3.125 C-11.84957031 2.96257812 -10.88664063 2.80015625 -9.89453125 2.6328125 C-6.52544476 1.89625108 -3.42502947 0 0 0 Z " fill="#E15B67" transform="translate(180,311)"/>
<path d="M0 0 C0.66 0.33 1.32 0.66 2 1 C-1.96 4.96 -5.92 8.92 -10 13 C-10.66 12.67 -11.32 12.34 -12 12 C-8.32167983 7.47384007 -4.58913637 3.60575001 0 0 Z " fill="#DA3644" transform="translate(205,649)"/>
<path d="M0 0 C0.66 0.33 1.32 0.66 2 1 C-1.3 4.3 -4.6 7.6 -8 11 C-8.66 10.67 -9.32 10.34 -10 10 C-3.84965831 2.51708428 -3.84965831 2.51708428 0 0 Z " fill="#F7D5D8" transform="translate(387,174)"/>
<path d="M0 0 C0.66 0.33 1.32 0.66 2 1 C-0.97 3.97 -3.94 6.94 -7 10 C-7.66 9.67 -8.32 9.34 -9 9 C-8.06725891 7.87105124 -7.12859878 6.74699124 -6.1875 5.625 C-5.66542969 4.99851562 -5.14335937 4.37203125 -4.60546875 3.7265625 C-3 2 -3 2 0 0 Z " fill="#F7D3D6" transform="translate(189,290)"/>
<path d="M0 0 C5.61 0 11.22 0 17 0 C17 0.99 17 1.98 17 3 C11.39 2.34 5.78 1.68 0 1 C0 0.67 0 0.34 0 0 Z " fill="#F2B9BE" transform="translate(300,257)"/>
</svg>
