<svg id="svg" version="1.1" xmlns="http://www.w3.org/2000/svg" xmlns:xlink="http://www.w3.org/1999/xlink" width="400" height="400" viewBox="0, 0, 400,400"><g id="svgg"><path id="path0" d="M156.565 68.655 C 112.729 99.536,112.435 163.464,155.986 194.280 C 158.080 195.762,162.783 198.691,162.881 198.574 C 163.010 198.422,167.600 185.475,167.600 185.264 C 167.600 185.143,166.588 184.370,165.350 183.546 C 129.715 159.811,128.326 106.604,162.691 81.674 L 163.277 81.249 161.189 74.125 C 160.040 70.207,159.055 67.004,159.000 67.006 C 158.945 67.009,157.849 67.751,156.565 68.655 M240.800 67.032 C 240.800 67.075,239.860 70.302,238.710 74.203 C 236.914 80.301,236.664 81.320,236.929 81.468 C 237.931 82.029,241.682 85.276,244.010 87.597 C 271.791 115.305,267.309 161.458,234.700 183.446 C 233.380 184.336,232.277 185.080,232.248 185.100 C 232.184 185.146,236.935 198.402,237.061 198.528 C 237.332 198.799,244.109 194.299,247.432 191.642 C 283.282 162.977,286.380 110.092,254.107 77.681 C 250.239 73.796,240.800 66.243,240.800 67.032 " stroke="none" fill="#fc6c04" fill-rule="evenodd"></path><path id="path1" d="M183.500 41.516 C 175.910 44.762,168.280 48.018,166.545 48.752 C 164.105 49.783,163.416 50.154,163.506 50.389 C 163.570 50.556,169.608 71.079,176.923 95.996 C 184.239 120.913,190.494 142.215,190.824 143.332 L 191.423 145.365 184.012 166.100 C 179.935 177.504,176.600 186.874,176.600 186.921 C 176.600 186.968,178.823 186.983,181.541 186.953 L 186.482 186.900 191.980 162.500 L 197.477 138.100 197.589 86.850 C 197.663 52.740,197.633 35.602,197.500 35.607 C 197.390 35.610,191.090 38.269,183.500 41.516 M202.049 86.250 L 202.100 136.900 207.700 161.949 L 213.300 186.999 218.271 186.999 C 222.924 187.000,223.234 186.978,223.108 186.650 C 223.035 186.458,219.682 177.089,215.659 165.831 L 208.345 145.363 212.992 129.531 C 215.548 120.824,221.777 99.615,226.834 82.400 C 231.891 65.185,236.075 50.865,236.134 50.577 C 236.238 50.058,236.114 50.000,219.327 42.827 C 210.026 38.852,202.321 35.600,202.207 35.600 C 202.063 35.600,202.014 51.226,202.049 86.250 M199.600 146.745 C 199.600 146.935,197.620 155.974,195.200 166.832 C 192.780 177.689,190.800 186.669,190.800 186.786 C 190.800 186.935,193.576 187.000,199.900 187.000 C 204.905 187.000,209.000 186.942,209.000 186.872 C 209.000 186.801,207.020 177.851,204.600 166.982 C 202.180 156.113,200.200 147.036,200.200 146.810 C 200.200 146.579,200.069 146.400,199.900 146.400 C 199.735 146.400,199.600 146.555,199.600 146.745 M171.550 200.960 C 170.148 204.897,169.000 208.182,169.000 208.259 C 169.000 208.337,182.905 208.400,199.900 208.400 C 216.895 208.400,230.797 208.332,230.793 208.250 C 230.789 208.168,229.640 204.905,228.238 201.000 L 225.691 193.900 199.895 193.851 L 174.100 193.802 171.550 200.960 M194.700 224.719 C 194.260 224.762,192.865 224.894,191.600 225.012 C 173.844 226.670,156.037 234.699,143.650 246.632 C 142.061 248.163,141.817 248.489,142.158 248.633 C 142.245 248.670,142.840 249.353,143.480 250.150 C 144.883 251.896,144.503 251.913,146.463 250.014 C 175.165 222.215,223.335 222.047,253.059 249.644 C 254.247 250.746,255.241 251.615,255.270 251.574 C 255.298 251.533,255.926 250.764,256.665 249.865 L 258.009 248.231 256.954 247.244 C 243.417 234.577,227.872 227.350,209.300 225.087 C 206.843 224.788,196.617 224.530,194.700 224.719 M185.800 234.935 C 176.852 236.773,177.502 235.756,179.380 244.983 C 181.742 256.596,182.453 257.167,192.100 255.201 C 194.410 254.730,196.340 254.310,196.388 254.268 C 196.734 253.964,195.527 249.410,195.127 249.507 C 192.699 250.097,186.816 251.117,186.500 251.004 C 186.020 250.832,185.687 250.187,185.509 249.088 L 185.378 248.276 189.689 247.407 C 192.149 246.911,194.000 246.444,194.000 246.319 C 194.001 245.511,193.104 241.800,192.908 241.800 C 192.778 241.800,190.879 242.161,188.687 242.603 C 184.011 243.544,184.342 243.594,184.029 241.897 C 183.724 240.243,183.143 240.556,188.518 239.478 C 191.038 238.973,193.140 238.522,193.188 238.475 C 193.318 238.350,192.377 233.596,192.227 233.620 C 192.157 233.631,189.265 234.223,185.800 234.935 M212.994 235.707 C 210.468 236.486,209.862 237.657,207.718 245.911 C 205.418 254.763,205.368 254.417,209.057 255.320 C 210.718 255.727,210.419 256.157,211.557 251.725 C 212.086 249.665,212.559 247.964,212.609 247.947 C 212.659 247.929,214.569 248.397,216.853 248.988 C 219.137 249.578,221.065 250.002,221.137 249.929 C 221.375 249.692,222.395 245.514,222.245 245.389 C 222.165 245.322,220.255 244.794,218.001 244.217 C 213.178 242.983,213.662 243.276,214.124 241.873 C 214.698 240.131,214.584 240.140,219.603 241.427 L 223.997 242.555 224.210 241.727 C 224.327 241.272,224.601 240.233,224.820 239.418 C 225.328 237.518,226.155 237.938,217.700 235.809 C 215.852 235.344,214.283 235.310,212.994 235.707 M161.049 244.401 C 160.142 245.160,159.254 245.862,159.076 245.961 C 158.810 246.111,159.399 246.935,162.482 250.721 C 164.533 253.239,166.451 255.645,166.744 256.066 C 169.296 259.735,164.090 264.363,160.827 261.326 C 160.457 260.982,158.448 258.607,156.363 256.048 C 152.965 251.878,152.535 251.423,152.216 251.648 C 151.408 252.220,148.616 254.508,148.608 254.604 C 148.594 254.789,156.173 264.063,157.225 265.147 C 163.746 271.873,176.113 263.234,172.040 254.798 C 171.502 253.685,163.270 243.198,162.826 243.061 C 162.757 243.040,161.957 243.643,161.049 244.401 M241.000 247.468 C 240.725 247.613,236.646 250.228,231.936 253.278 C 227.226 256.328,223.243 258.873,223.086 258.933 C 222.561 259.134,222.785 259.319,225.188 260.669 L 227.576 262.010 233.006 258.489 C 235.992 256.553,238.465 254.998,238.502 255.035 C 238.631 255.164,236.898 260.798,236.729 260.799 C 236.635 260.800,236.285 260.570,235.951 260.289 C 235.617 260.008,235.216 259.828,235.060 259.888 C 234.610 260.060,232.200 261.820,232.200 261.976 C 232.200 262.087,234.789 264.080,235.626 264.613 C 235.723 264.674,235.604 265.386,235.361 266.194 L 234.919 267.664 236.909 269.525 C 238.004 270.549,238.986 271.361,239.091 271.330 C 239.375 271.245,245.196 251.027,245.198 250.116 C 245.202 248.392,242.487 246.679,241.000 247.468 M196.100 259.391 C 184.536 260.437,174.207 265.151,166.436 272.928 C 164.224 275.142,164.000 275.430,164.236 275.754 C 164.381 275.953,164.984 276.714,165.576 277.445 L 166.652 278.775 168.753 276.581 C 185.910 258.677,216.579 259.306,232.375 277.885 L 233.213 278.871 233.532 278.415 C 233.708 278.164,234.290 277.432,234.826 276.788 C 236.059 275.306,236.196 275.668,233.350 272.874 C 223.475 263.180,209.625 258.167,196.100 259.391 M213.800 286.493 C 203.447 288.197,197.400 296.235,197.400 308.291 C 197.400 322.186,204.983 330.321,217.900 330.283 C 230.652 330.246,238.203 322.054,238.199 308.262 C 238.195 293.302,227.952 284.163,213.800 286.493 M84.200 308.401 L 84.200 329.603 99.050 329.551 L 113.900 329.500 113.954 325.050 L 114.008 320.600 104.004 320.600 L 94.000 320.600 94.000 316.600 L 94.000 312.600 102.900 312.600 L 111.800 312.600 111.800 308.100 L 111.800 303.600 102.900 303.600 L 94.000 303.600 94.000 299.800 L 94.000 296.000 103.700 296.000 L 113.400 296.000 113.400 291.600 L 113.400 287.200 98.800 287.200 L 84.200 287.200 84.200 308.401 M119.251 301.750 C 119.327 318.198,119.292 317.805,120.996 321.300 C 126.533 332.652,146.096 333.372,152.577 322.462 C 154.892 318.566,155.000 317.604,155.000 300.974 L 155.000 287.200 150.109 287.200 L 145.218 287.200 145.156 300.950 C 145.086 316.315,145.120 315.943,143.598 318.240 C 140.850 322.388,133.276 322.336,130.572 318.150 C 129.075 315.832,129.116 316.293,129.044 300.950 L 128.980 287.200 124.081 287.200 L 119.183 287.200 119.251 301.750 M160.800 308.403 L 160.800 329.607 165.750 329.553 L 170.700 329.500 170.700 321.950 L 170.700 314.400 173.224 314.400 L 175.747 314.400 179.925 321.950 L 184.103 329.500 189.651 329.553 C 192.703 329.582,195.200 329.579,195.200 329.546 C 195.200 329.512,193.082 325.673,190.494 321.015 C 187.906 316.356,185.813 312.529,185.844 312.510 C 197.485 305.215,194.459 289.809,180.913 287.410 C 180.195 287.283,175.992 287.200,170.263 287.200 L 160.800 287.200 160.800 308.403 M243.800 308.388 L 243.800 329.600 248.700 329.600 L 253.600 329.600 253.600 322.528 L 253.600 315.456 258.350 315.342 C 263.585 315.217,265.187 314.954,267.714 313.808 C 277.844 309.215,278.320 294.107,268.495 289.052 C 265.125 287.319,265.221 287.331,253.850 287.249 L 243.800 287.176 243.800 308.388 M284.638 296.150 C 282.649 301.072,278.812 310.541,276.111 317.191 C 273.410 323.840,271.200 329.354,271.200 329.444 C 271.200 329.533,273.689 329.582,276.732 329.553 L 282.263 329.500 283.795 325.500 L 285.327 321.500 293.480 321.500 L 301.632 321.500 303.166 325.500 L 304.700 329.500 310.274 329.553 C 315.523 329.603,315.842 329.586,315.740 329.253 C 315.680 329.059,314.674 326.560,313.504 323.700 C 312.335 320.840,310.047 315.215,308.421 311.200 C 306.794 307.185,303.942 300.143,302.082 295.552 L 298.700 287.204 293.477 287.202 L 288.254 287.200 284.638 296.150 M221.024 295.612 C 230.295 298.302,231.212 316.189,222.300 320.504 C 215.626 323.736,208.649 319.589,207.423 311.662 C 205.707 300.573,212.104 293.023,221.024 295.612 M180.600 296.524 C 182.957 297.595,183.876 300.698,182.585 303.228 C 181.665 305.032,180.367 305.400,174.918 305.400 L 170.700 305.400 170.700 300.679 L 170.700 295.959 175.200 296.037 C 179.204 296.107,179.799 296.161,180.600 296.524 M261.524 296.219 C 264.244 296.693,265.594 298.316,265.598 301.120 C 265.604 305.256,264.096 306.264,257.750 306.367 L 253.600 306.435 253.600 301.217 L 253.600 296.000 256.934 296.000 C 258.767 296.000,260.833 296.099,261.524 296.219 M295.763 306.100 C 296.977 309.290,298.031 312.058,298.106 312.250 C 298.234 312.577,297.937 312.600,293.521 312.600 C 290.925 312.600,288.800 312.556,288.800 312.502 C 288.800 312.448,289.754 309.906,290.920 306.852 C 292.087 303.798,293.132 301.048,293.244 300.740 C 293.503 300.023,293.234 299.450,295.763 306.100 M207.302 339.123 C 197.447 341.505,194.464 355.018,202.342 361.600 C 207.345 365.780,215.508 365.349,220.432 360.645 L 222.000 359.147 222.000 354.873 L 222.000 350.600 215.500 350.600 L 209.000 350.600 209.000 352.900 L 209.000 355.200 212.800 355.200 L 216.600 355.200 216.600 356.050 C 216.600 358.456,211.520 359.937,207.907 358.585 C 202.357 356.509,202.381 346.730,207.942 344.589 C 211.038 343.397,214.305 344.418,215.653 346.998 C 215.966 347.599,216.261 348.128,216.308 348.174 C 216.468 348.335,221.798 346.700,221.799 346.489 C 221.803 345.767,220.114 342.914,219.060 341.864 C 216.461 339.272,211.484 338.112,207.302 339.123 M132.200 351.600 L 132.200 364.000 140.900 364.000 L 149.600 364.000 149.600 361.400 L 149.600 358.800 143.800 358.800 L 138.000 358.800 138.000 349.000 L 138.000 339.200 135.100 339.200 L 132.200 339.200 132.200 351.600 M152.000 351.600 L 152.000 364.000 160.800 364.000 L 169.600 364.000 169.600 361.400 L 169.600 358.800 163.800 358.800 L 158.000 358.800 158.000 356.500 L 158.000 354.200 163.200 354.200 L 168.400 354.200 168.400 351.500 L 168.400 348.800 163.200 348.800 L 158.000 348.800 158.000 346.594 L 158.000 344.388 163.450 344.400 C 166.447 344.407,169.013 344.409,169.150 344.406 C 169.337 344.402,169.400 343.743,169.400 341.800 L 169.400 339.200 160.700 339.200 L 152.000 339.200 152.000 351.600 M181.812 339.650 C 181.715 339.898,179.467 345.441,176.817 351.970 C 174.168 358.498,172.000 363.876,172.000 363.920 C 172.000 363.964,173.474 364.000,175.276 364.000 L 178.551 364.000 179.426 361.697 L 180.300 359.394 185.074 359.447 L 189.848 359.500 190.695 361.700 L 191.543 363.900 194.895 363.955 C 197.552 363.998,198.223 363.957,198.135 363.755 C 197.931 363.291,191.286 346.972,189.703 343.050 L 188.150 339.200 185.070 339.200 C 182.062 339.200,181.986 339.211,181.812 339.650 M224.403 347.350 C 224.407 356.323,224.494 357.209,225.579 359.358 C 228.996 366.128,240.889 366.131,244.319 359.362 C 245.347 357.334,245.400 356.758,245.400 347.658 L 245.400 339.200 242.508 339.200 L 239.617 339.200 239.558 347.450 C 239.494 356.601,239.470 356.771,238.075 358.075 C 236.355 359.683,232.712 359.400,231.339 357.552 C 230.351 356.221,230.328 356.007,230.246 347.350 L 230.169 339.200 227.284 339.200 L 224.400 339.200 224.403 347.350 M248.400 351.600 L 248.400 364.000 257.200 364.000 L 266.000 364.000 266.000 361.400 L 266.000 358.800 260.100 358.800 L 254.200 358.800 254.200 356.500 L 254.200 354.200 259.500 354.200 L 264.800 354.200 264.800 351.500 L 264.800 348.800 259.500 348.800 L 254.200 348.800 254.200 346.594 L 254.200 344.389 259.850 344.407 L 265.500 344.425 265.556 341.812 L 265.612 339.200 257.006 339.200 L 248.400 339.200 248.400 351.600 M186.493 350.688 L 187.760 354.000 185.058 354.000 C 182.979 354.000,182.380 353.942,182.455 353.750 C 182.509 353.613,183.121 352.023,183.816 350.218 C 184.510 348.413,185.112 347.035,185.152 347.156 C 185.192 347.277,185.796 348.867,186.493 350.688 " stroke="none" fill="#040404" fill-rule="evenodd"></path><path id="path2" d="" stroke="none" fill="#1003804" fill-rule="evenodd"></path><path id="path3" d="" stroke="none" fill="#443804" fill-rule="evenodd"></path><path id="path4" d="" stroke="none" fill="#043c04" fill-rule="evenodd"></path></g></svg>
