<?xml version="1.0" encoding="UTF-8"?>
<svg version="1.1" xmlns="http://www.w3.org/2000/svg" width="320" height="320">
<path d="M0 0 C-2.58529575 10.50152863 -5.30194511 20.95769269 -8.16796875 31.38671875 C-8.56465841 32.83531726 -8.96121514 34.28395218 -9.35765076 35.73262024 C-10.63157108 40.38498837 -11.90936467 45.03628842 -13.1875 49.6875 C-13.6287395 51.2940222 -14.06996254 52.90054892 -14.51116943 54.50708008 C-16.99949822 63.56617871 -19.49188757 72.6241545 -21.98625183 81.68159294 C-23.51642305 87.23937691 -25.04234044 92.79831534 -26.56591797 98.35791016 C-28.35440725 104.88386506 -30.14850962 111.40824197 -31.95034313 117.93052578 C-32.87909701 121.29283232 -33.80525871 124.65580015 -34.72494507 128.02059937 C-35.73751468 131.72451895 -36.76260823 135.42490263 -37.7890625 139.125 C-38.08711288 140.2224202 -38.38516327 141.31984039 -38.69224548 142.45051575 C-38.96863358 143.43879868 -39.24502167 144.4270816 -39.52978516 145.4453125 C-39.76702301 146.30656738 -40.00426086 147.16782227 -40.24868774 148.05517578 C-41 150 -41 150 -43 151 C-44.81341842 151.08471364 -46.62994161 151.10721083 -48.4453125 151.09765625 C-49.52167969 151.09443359 -50.59804687 151.09121094 -51.70703125 151.08789062 C-52.83496094 151.07951172 -53.96289062 151.07113281 -55.125 151.0625 C-56.82849609 151.05573242 -56.82849609 151.05573242 -58.56640625 151.04882812 C-61.37765638 151.03701615 -64.1888023 151.02054507 -67 151 C-66.41831576 142.47808948 -64.13127568 134.50049783 -61.84375 126.3125 C-61.41772313 124.76790951 -60.99232169 123.22314639 -60.56750488 121.67822266 C-59.44591837 117.60563771 -58.31624066 113.53534182 -57.18469238 109.46551514 C-56.06908704 105.44832154 -54.96045423 101.42920723 -53.8515625 97.41015625 C-52.5387087 92.65344619 -51.22521279 87.89691874 -49.90820312 83.14135742 C-45.56042128 67.4398283 -41.27487321 51.72151174 -37 36 C-42.94 37.32 -48.88 38.64 -55 40 C-55.49886719 42.06894531 -55.99773437 44.13789062 -56.51171875 46.26953125 C-59.45528408 58.17853603 -62.89561177 69.95433306 -66.26005936 81.74946594 C-67.19537591 85.03067878 -68.12775558 88.31272578 -69.06030273 91.59472656 C-70.21348171 95.65263357 -71.36688076 99.71047727 -72.52149963 103.76797485 C-76.54984156 117.92450342 -80.55661398 132.0871011 -84.5625 146.25 C-87.7490625 157.51125 -87.7490625 157.51125 -91 169 C-73.18 169 -55.36 169 -37 169 C-39 179 -39 179 -43 193 C-69.73 193 -96.46 193 -124 193 C-122.8750003 182.87500269 -122.8750003 182.87500269 -121.52650452 178.18136597 C-121.07441368 176.58770706 -121.07441368 176.58770706 -120.6131897 174.96185303 C-120.11835587 173.25959564 -120.11835587 173.25959564 -119.61352539 171.52294922 C-119.26546341 170.30392914 -118.91740143 169.08490906 -118.55879211 167.82894897 C-117.61069653 164.50904604 -116.65370548 161.19176834 -115.69502187 157.87490988 C-114.68974098 154.39102175 -113.69279566 150.9047497 -112.69493103 147.41873169 C-110.80488108 140.8206087 -108.90744304 134.22463469 -107.00729126 127.62941468 C-104.85143001 120.14531832 -102.70378411 112.65887296 -100.55685437 105.17221045 C-96.8850672 92.36866424 -93.20717044 79.56688814 -89.52233887 66.76708984 C-89.21812515 65.71029022 -88.91391144 64.6534906 -88.60047913 63.56466675 C-88.33814515 62.65364134 -88.07581118 61.74261593 -87.80552769 60.80398369 C-86.86697705 57.53695673 -85.93382324 54.26838134 -85 51 C-92.59 51 -100.18 51 -108 51 C-106.79269828 47.05454996 -105.56060351 43.12003441 -104.3125 39.1875 C-103.97283203 38.06794922 -103.63316406 36.94839844 -103.28320312 35.79492188 C-102.93837891 34.72177734 -102.59355469 33.64863281 -102.23828125 32.54296875 C-101.774823 31.0583313 -101.774823 31.0583313 -101.30200195 29.54370117 C-99.23534541 25.50610609 -96.06634582 24.3563181 -91.86238098 22.9515686 C-90.68423325 22.6357785 -89.50608551 22.3199884 -88.29223633 21.99462891 C-87.63766953 21.81690445 -86.98310272 21.63917999 -86.30870056 21.45606995 C-84.1516916 20.87231719 -81.9919501 20.2994454 -79.83203125 19.7265625 C-78.3126955 19.31753381 -76.79354877 18.90780245 -75.27458191 18.49740601 C-71.27035079 17.41745463 -67.26374442 16.34659445 -63.25653076 15.277771 C-58.4559594 13.99559657 -53.65822827 12.70284612 -48.86009026 11.41160202 C-45.01774363 10.37786213 -41.17488558 9.34613777 -37.33059692 8.31964111 C-31.20613207 6.68276377 -25.08457328 5.04298725 -18.99365234 3.28417969 C-17.73992073 2.92348892 -17.73992073 2.92348892 -16.46086121 2.55551147 C-15.0351303 2.14129451 -13.61151936 1.71963984 -12.19111633 1.2875061 C-8.02320102 0.07491671 -4.32043678 -0.06199964 0 0 Z " fill="#000000" transform="translate(242,16)"/>
<path d="M0 0 C4.62 0 9.24 0 14 0 C15.36682074 2.73364147 15.16265463 4.95037479 15.20532227 8.01025391 C15.22526749 9.27141022 15.24521271 10.53256653 15.26576233 11.8319397 C15.28274665 13.21347937 15.29962546 14.59502034 15.31640625 15.9765625 C15.3369756 17.38618582 15.35797207 18.79580297 15.37937927 20.20541382 C15.43460195 23.91747035 15.48401031 27.62958257 15.53222656 31.34173584 C15.58244018 35.12891603 15.63812697 38.91601526 15.69335938 42.703125 C15.80094333 50.13534812 15.90238773 57.56763852 16 65 C19.27539772 66.85701328 19.27539772 66.85701328 29 65 C29 43.55 29 22.1 29 0 C33.62 0 38.24 0 43 0 C43 26.07 43 52.14 43 79 C38.38 79 33.76 79 29 79 C28.67 76.69 28.34 74.38 28 72 C26.68 74.31 25.36 76.62 24 79 C21.43635517 79.10845031 18.87733721 79.18749744 16.3125 79.25 C15.59126953 79.28351563 14.87003906 79.31703125 14.12695312 79.3515625 C10.54841107 79.416924 8.40094711 79.20572734 5.16796875 77.546875 C-1.27836728 69.97388204 -0.39918667 60.07646518 -0.29296875 50.68359375 C-0.28736283 49.21672503 -0.28309745 47.74985063 -0.28010559 46.28297424 C-0.26873501 42.45079624 -0.23933665 38.61896767 -0.20599365 34.78692627 C-0.17512323 30.86516037 -0.16156425 26.94333716 -0.14648438 23.02148438 C-0.11445793 15.34747966 -0.0617555 7.67383361 0 0 Z " fill="#000000" transform="translate(154,225)"/>
<path d="M0 0 C1.10794922 -0.04350586 1.10794922 -0.04350586 2.23828125 -0.08789062 C7.89766467 -0.15276892 11.08809766 1.08909397 15.75 4.3125 C19.61991082 8.58976985 20.35974681 12.49482635 20.96484375 18.04296875 C20.75 20.3125 20.75 20.3125 19.5390625 21.9453125 C17.50222252 23.5018496 15.4354137 24.76679529 13.1875 26 C12.40246094 26.43699219 11.61742187 26.87398437 10.80859375 27.32421875 C8.75 28.3125 8.75 28.3125 6.75 28.3125 C6.62882812 27.31347656 6.50765625 26.31445312 6.3828125 25.28515625 C6.21523437 23.99480469 6.04765625 22.70445312 5.875 21.375 C5.71257812 20.08722656 5.55015625 18.79945313 5.3828125 17.47265625 C5.17398438 16.42980469 4.96515625 15.38695312 4.75 14.3125 C1.97899606 12.92699803 -0.1834706 13.1247533 -3.25 13.3125 C-6.31747429 14.9307318 -6.31747429 14.9307318 -6.92842102 17.16737366 C-7.25637261 19.35500917 -7.38386882 21.42261092 -7.39526367 23.63452148 C-7.40164352 24.47897324 -7.40802338 25.32342499 -7.41459656 26.19346619 C-7.41570938 27.09770828 -7.4168222 28.00195038 -7.41796875 28.93359375 C-7.42129715 29.87050552 -7.42462555 30.8074173 -7.42805481 31.77272034 C-7.43311231 33.75220245 -7.4354635 35.73169307 -7.43530273 37.71118164 C-7.43748939 40.73533189 -7.45565808 43.75911737 -7.47460938 46.78320312 C-7.47754352 48.70833209 -7.47952817 50.63346278 -7.48046875 52.55859375 C-7.48765427 53.46081161 -7.49483978 54.36302948 -7.50224304 55.29258728 C-7.48608281 59.74469086 -7.358639 63.26811263 -5.25 67.3125 C-1.95 67.3125 1.35 67.3125 4.75 67.3125 C6.81363681 63.18522638 7.17167583 60.04410349 7.375 55.5625 C7.41367188 54.86511719 7.45234375 54.16773438 7.4921875 53.44921875 C7.58598624 51.73739182 7.66906174 50.02498318 7.75 48.3125 C4.12 47.9825 0.49 47.6525 -3.25 47.3125 C-2.7221307 42.82561093 -1.95509 39.57522499 -0.25 35.3125 C7.01 35.3125 14.27 35.3125 21.75 35.3125 C21.80427506 39.45851177 21.84380883 43.60380271 21.875 47.75 C21.89175781 48.91466797 21.90851563 50.07933594 21.92578125 51.27929688 C21.97767221 60.48994143 21.90035718 68.96624004 15.75 76.3125 C10.63408996 80.59795603 6.70043902 80.9323675 0.3125 80.8125 C-0.50798828 80.82796875 -1.32847656 80.8434375 -2.17382812 80.859375 C-8.01430984 80.82208541 -11.46209709 79.67630871 -16.25 76.3125 C-21.89863716 69.59520176 -22.54522726 61.61877615 -22.875 53.1875 C-22.91149658 52.35565186 -22.94799316 51.52380371 -22.9855957 50.66674805 C-23.08628293 48.21559181 -23.17133599 45.76445193 -23.25 43.3125 C-23.29253906 42.06339844 -23.33507812 40.81429687 -23.37890625 39.52734375 C-23.82644576 13.54021617 -23.82644576 13.54021617 -16.25 5.3125 C-11.09353253 0.52435164 -6.82335529 0.08747891 0 0 Z " fill="#000000" transform="translate(126.25,223.6875)"/>
<path d="M0 0 C10.23 0 20.46 0 31 0 C34 9 34 9 34 12 C27.4 12 20.8 12 14 12 C14 18.27 14 24.54 14 31 C19.28 31 24.56 31 30 31 C27.125 42.875 27.125 42.875 26 44 C21.99779347 44.14355117 18.00558317 44.04216403 14 44 C14 51.26 14 58.52 14 66 C20.93 66 27.86 66 35 66 C33 76 33 76 32 79 C21.44 79 10.88 79 0 79 C0 52.93 0 26.86 0 0 Z " fill="#000000" transform="translate(205,225)"/>
<path d="M0 0 C4.29 0 8.58 0 13 0 C13 21.78 13 43.56 13 66 C19.6 66 26.2 66 33 66 C31.125 75.625 31.125 75.625 30 79 C20.1 79 10.2 79 0 79 C0 52.93 0 26.86 0 0 Z " fill="#000000" transform="translate(46,225)"/>
<path d="M0 0 C10.05859375 -0.09765625 10.05859375 -0.09765625 13 0 C14.68232339 1.68232339 14.12575392 3.75423024 14.13552856 5.99983215 C14.13350433 6.7146727 14.1314801 7.42951324 14.12939453 8.16601562 C14.13114685 8.91558029 14.13289917 9.66514496 14.13470459 10.43742371 C14.1391232 12.92705569 14.1361851 15.41661723 14.1328125 17.90625 C14.13348554 19.62878432 14.13445556 21.35131855 14.13571167 23.07385254 C14.13718865 26.68872988 14.13503407 30.30358255 14.13037109 33.91845703 C14.1246738 38.56266493 14.1279528 43.20681504 14.13394356 47.85102081 C14.13754916 51.40936726 14.13641059 54.9676999 14.13381577 58.52604675 C14.13314649 60.23894762 14.13397493 61.95184972 14.13629532 63.66474915 C14.13882183 66.05452822 14.1349813 68.44421241 14.12939453 70.83398438 C14.13141876 71.54882492 14.13344299 72.26366547 14.13552856 73.00016785 C14.11426269 77.88573731 14.11426269 77.88573731 13 79 C8.66684941 79.1438629 4.33487639 79.04208618 0 79 C-0.81438691 65.50881823 -1.1592238 52.06727603 -1.13037109 38.55200195 C-1.12496043 35.54047722 -1.13038435 32.52909869 -1.13671875 29.51757812 C-1.13976242 19.62961406 -1.02906606 9.8441069 0 0 Z " fill="#000000" transform="translate(83,225)"/>
<path d="M0 0 C0 26.4 0 52.8 0 80 C-4.29 80 -8.58 80 -13 80 C-13 59.21 -13 38.42 -13 17 C-16.63 17 -20.26 17 -24 17 C-23.3333677 8.86708598 -23.3333677 8.86708598 -20 6 C-18.14648438 5.10864258 -18.14648438 5.10864258 -16.09375 4.39453125 C-15.34996094 4.13349609 -14.60617187 3.87246094 -13.83984375 3.60351562 C-12.68162109 3.21196289 -12.68162109 3.21196289 -11.5 2.8125 C-10.72785156 2.53986328 -9.95570313 2.26722656 -9.16015625 1.98632812 C-3.41523731 0 -3.41523731 0 0 0 Z " fill="#000000" transform="translate(274,224)"/>
</svg>
