<?xml version="1.0" encoding="UTF-8"?>
<svg version="1.1" xmlns="http://www.w3.org/2000/svg" width="1024" height="1024">
<path d="M0 0 C0.95815613 0.00059418 1.91631226 0.00118835 2.90350342 0.00180054 C31.96766471 0.07072321 47.45575045 7.79975115 67.9375 28.25 C71.70227113 32.16177114 75.34033581 36.18426733 78.9375 40.25 C78.56078894 31.020579 77.03161479 21.34187306 72.80859375 13.02734375 C71.9375 11.25 71.9375 11.25 71.9375 8.25 C101.40750642 14.26267245 130.74345915 25.77570366 154.96484375 43.82324219 C156.91904302 45.23665067 158.92435974 46.51082044 160.96875 47.7890625 C168.30814686 52.71820329 171.47340183 57.15005556 173.26391602 65.89404297 C173.81846725 69.16014489 174.32039112 72.43098519 174.8125 75.70703125 C175.79202174 82.04494815 177.55079663 87.82334058 179.8125 93.8125 C180.15063721 94.70928467 180.48877441 95.60606934 180.8371582 96.5300293 C183.31202187 102.92063014 185.99698023 109.22970627 188.94287109 115.41821289 C191.04235203 119.93544391 191.04235203 119.93544391 189.9375 123.25 C189.15439453 122.43208984 189.15439453 122.43208984 188.35546875 121.59765625 C183.42526205 116.54656883 178.30781 111.95800689 172.796875 107.55078125 C169.94116655 105.25295027 167.16082687 102.88180501 164.375 100.5 C145.62941431 84.9108047 124.99747777 71.62430923 102.9375 61.25 C102.2775 60.92 101.6175 60.59 100.9375 60.25 C100.97230469 61.25417969 101.00710938 62.25835937 101.04296875 63.29296875 C100.77087811 73.50140635 96.97910506 83.46851578 91.9375 92.25 C88.51423397 90.99262599 85.71960642 89.56213938 82.77734375 87.4140625 C81.99391602 86.85033936 81.21048828 86.28661621 80.40332031 85.70581055 C79.56897461 85.10164307 78.73462891 84.49747559 77.875 83.875 C62.91640611 73.22779062 47.05915013 64.01824158 30.9375 55.25 C29.92300781 54.67378906 28.90851563 54.09757812 27.86328125 53.50390625 C13.37735409 47.29565175 -13.5852898 57.84912277 -27.64306641 63.26464844 C-44.50882189 70.1334869 -60.16495878 78.42141605 -74.0625 90.25 C-70.4413632 93.98429732 -66.63283447 97.36789123 -62.63671875 100.69921875 C-62.11722656 101.21097656 -61.59773438 101.72273438 -61.0625 102.25 C-61.0625 102.91 -61.0625 103.57 -61.0625 104.25 C-61.8153125 104.49492187 -62.568125 104.73984375 -63.34375 104.9921875 C-79.01162942 110.50636836 -91.4112178 119.57527458 -103.0625 131.25 C-103.62291992 131.80880859 -104.18333984 132.36761719 -104.76074219 132.94335938 C-106.19673532 134.37683174 -107.6298938 135.81314274 -109.0625 137.25 C-103.84559047 139.21703146 -98.67224188 140.06550496 -93.1875 140.875 C-91.86878906 141.07609375 -91.86878906 141.07609375 -90.5234375 141.28125 C-88.37050222 141.60887059 -86.21659378 141.93008508 -84.0625 142.25 C-83.73378906 144.00763672 -83.73378906 144.00763672 -83.3984375 145.80078125 C-80.05091726 162.77904201 -73.56399579 175.54593153 -59.1875 186.0625 C-43.92736753 196.0209902 -29.50016126 199.45486372 -11.53515625 199.27734375 C-9.02409004 199.2646741 -6.51302224 199.25231494 -4.00195312 199.24023438 C-0.09084989 199.21569126 3.82016767 199.1879756 7.73120117 199.15405273 C20.91960505 199.04704914 34.03873758 199.04125192 47.19140625 200.12109375 C48.60884377 200.23686012 48.60884377 200.23686012 50.05491638 200.35496521 C58.55537011 201.14523254 66.72786548 202.95219469 74.9375 205.25 C62.29141471 190.51107665 48.99719544 175.58075734 33.9375 163.25 C33.16019531 162.55648437 32.38289063 161.86296875 31.58203125 161.1484375 C23.85219367 155.59939605 11.6065177 157.16937537 2.5 157.25 C-15.68844774 157.39922889 -30.82533825 154.73174253 -47.125 146.25 C-47.74439453 145.93015137 -48.36378906 145.61030273 -49.00195312 145.28076172 C-53.07985268 143.06650246 -55.96139838 140.62662483 -59.0625 137.25 C-45.86998296 124.11956539 -26.90477152 112.52375047 -7.953125 111 C-2.95807605 111.320967 1.05919472 112.79893022 5.6875 114.625 C6.59765869 114.97788086 7.50781738 115.33076172 8.44555664 115.69433594 C20.15487505 120.36308121 31.55432503 126.07557166 41.9375 133.25 C45.18706578 131.73804925 47.99396282 129.8493226 50.9375 127.8125 C57.76887957 123.41107424 64.80354859 121.25 72.9375 121.25 C71.46477266 124.32998265 69.75622188 127.17527902 67.9375 130.0625 C64.19461456 136.3067284 62.78186022 141.83788506 62.37890625 149.0390625 C63.22115252 152.37270856 65.48070384 153.88546985 67.9375 156.25 C68.81519043 157.12245361 69.69288086 157.99490723 70.59716797 158.89379883 C71.53189941 159.82216553 72.46663086 160.75053223 73.4296875 161.70703125 C75.01488211 163.2848401 76.59958966 164.86313633 78.18408203 166.44165039 C79.26521017 167.51775379 80.34723467 168.59295744 81.43017578 169.66723633 C87.48984504 175.67989568 93.40744081 181.73937419 98.9375 188.25 C100.57894767 190.08726101 102.22405874 191.92126507 103.875 193.75 C104.64714844 194.6059375 105.41929687 195.461875 106.21484375 196.34375 C107.06755859 197.28734375 107.06755859 197.28734375 107.9375 198.25 C108.88109375 197.91226563 109.8246875 197.57453125 110.796875 197.2265625 C112.09357444 196.77553661 113.39045984 196.32504512 114.6875 195.875 C115.30238281 195.65328125 115.91726563 195.4315625 116.55078125 195.203125 C127.04548351 191.59888382 137.66609279 190.89897839 148.69067383 190.93432617 C150.73768759 190.93748102 152.78324197 190.91394146 154.83007812 190.88867188 C166.69097091 190.83194842 177.55402784 192.91098106 188.9375 196.25 C179.49281324 186.55601186 170.01257736 177.41379922 159.0546875 169.4140625 C150.13876814 162.75100585 144.61241097 156.44582569 139.3984375 146.640625 C136.80606579 141.81972323 133.63629417 137.52549002 130.3125 133.1875 C129.51150879 132.14178833 129.51150879 132.14178833 128.69433594 131.07495117 C127.44917402 129.46111804 126.19445287 127.85466664 124.9375 126.25 C128.65884641 125.0095512 129.99133026 125.96702307 133.38427734 127.65234375 C134.08246582 128.01457031 134.7806543 128.37679687 135.5 128.75 C136.21365723 129.11222656 136.92731445 129.47445312 137.66259766 129.84765625 C142.78835558 132.50605701 147.5127652 135.5037607 152.1171875 139 C153.84425464 140.43869276 153.84425464 140.43869276 155.9375 140.25 C157.18277817 139.209345 158.38487235 138.11663498 159.5625 137 C164.99299509 132.14888865 171.38547687 127.83044316 178.9375 128.25 C184.69156577 132.58279772 188.47023977 140.31136753 189.9375 147.25 C190.42328226 151.70300409 190.53261747 153.50610316 187.6875 157.0625 C185.42262785 158.86410285 183.51714538 160.03183413 180.9375 161.25 C185.50382484 166.54880698 190.18343437 171.73315141 194.94067383 176.86035156 C198.05829669 180.23594177 201.02096241 183.70172141 203.9375 187.25 C204.07027344 186.11820313 204.20304688 184.98640625 204.33984375 183.8203125 C204.5180342 182.33851821 204.69643029 180.85674864 204.875 179.375 C204.96201172 178.62863281 205.04902344 177.88226563 205.13867188 177.11328125 C205.82421875 171.4765625 205.82421875 171.4765625 206.9375 169.25 C207.5975 169.25 208.2575 169.25 208.9375 169.25 C210.21508789 170.84790039 210.21508789 170.84790039 211.66015625 173.09765625 C212.19390869 173.92249512 212.72766113 174.74733398 213.27758789 175.59716797 C214.13018188 176.94125732 214.13018188 176.94125732 215 178.3125 C215.8806311 179.68752686 215.8806311 179.68752686 216.77905273 181.09033203 C218.50943455 183.80351386 220.22681207 186.52436588 221.9375 189.25 C222.57945312 190.272146 222.57945312 190.272146 223.234375 191.31494141 C270.17884125 266.61499065 288.32079822 352.27846135 268.36938477 439.55541992 C261.03837547 470.14912453 261.03837547 470.14912453 256.9375 474.25 C252.06712658 469.47902196 247.3116898 464.67239862 242.87866211 459.49023438 C240.68938191 456.96365468 238.45799892 454.4784728 236.21875 451.99609375 C235.41501953 451.10462646 234.61128906 450.21315918 233.78320312 449.29467773 C233.17412109 448.61993408 232.56503906 447.94519043 231.9375 447.25 C231.7923999 448.11874756 231.6472998 448.98749512 231.49780273 449.88256836 C226.03699013 482.18581707 218.52123886 513.17354073 202.9375 542.25 C202.56399414 542.96220703 202.19048828 543.67441406 201.80566406 544.40820312 C185.59846299 575.25721366 161.75021481 604.11233674 133.9375 625.25 C133.2971582 625.74016602 132.65681641 626.23033203 131.99707031 626.73535156 C114.31778701 640.25 114.31778701 640.25 110.9375 640.25 C107.68575984 630.27261094 104.99278106 620.15702746 102.31225586 610.01416016 C102.01971924 608.91249512 101.72718262 607.81083008 101.42578125 606.67578125 C101.03193237 605.18171753 101.03193237 605.18171753 100.63012695 603.6574707 C100.0211814 601.26529142 100.0211814 601.26529142 98.9375 599.25 C98.39037354 599.59667725 97.84324707 599.94335449 97.27954102 600.30053711 C62.04033044 622.55823626 25.33875595 637.71443115 -16.0625 644.25 C-17.28332275 644.44698486 -17.28332275 644.44698486 -18.52880859 644.64794922 C-63.24619682 651.52383833 -116.23503398 644.72065155 -155.27319336 620.90112305 C-157.0625 619.25 -157.0625 619.25 -157.33544922 617.33642578 C-157.22217285 616.5886084 -157.10889648 615.84079102 -156.9921875 615.0703125 C-156.86424805 614.17989258 -156.73630859 613.28947266 -156.60449219 612.37207031 C-156.42563477 611.34178711 -156.24677734 610.31150391 -156.0625 609.25 C-155.86043945 608.05729492 -155.65837891 606.86458984 -155.45019531 605.63574219 C-154.85437808 602.19767449 -154.22672369 598.76592962 -153.59359741 595.33456421 C-151.55365072 584.23527357 -149.629268 573.14154062 -148.25 561.9375 C-148.13865723 561.03435059 -148.02731445 560.13120117 -147.91259766 559.20068359 C-147.6029193 556.55241673 -147.32381902 553.90346686 -147.0625 551.25 C-146.9682373 550.29383789 -146.87397461 549.33767578 -146.77685547 548.35253906 C-145.93584592 538.78097776 -145.81936035 529.22682201 -145.8125 519.625 C-145.81182526 518.76961639 -145.81115051 517.91423279 -145.81045532 517.03292847 C-145.844418 489.75137254 -149.66728239 463.52716498 -157.0625 437.25 C-160.92232292 442.53299785 -164.76649088 447.82359067 -168.54125977 453.16772461 C-177.65828858 466.04499839 -187.22765558 478.51895492 -197.55151367 490.45214844 C-198.69412085 491.81168298 -199.80949168 493.19417066 -200.91137695 494.58691406 C-206.81278062 502.00861266 -213.22350297 508.75108992 -219.93530273 515.43847656 C-221.73899619 517.23901543 -223.52892983 519.05248561 -225.31835938 520.8671875 C-231.22456646 526.80559833 -237.2542289 532.43194486 -243.83203125 537.625 C-244.72543465 538.33112427 -244.72543465 538.33112427 -245.6368866 539.05151367 C-249.79796623 542.25 -249.79796623 542.25 -252.0625 542.25 C-257.75133512 531.52206981 -262.40374245 520.82988822 -266.0625 509.25 C-266.38879395 508.24308105 -266.38879395 508.24308105 -266.72167969 507.21582031 C-277.25420391 474.24790409 -279.3144857 439.00147156 -279.375 404.625 C-279.38051376 403.13400284 -279.38051376 403.13400284 -279.38613892 401.61288452 C-279.48386893 351.09273786 -279.48386893 351.09273786 -273.0625 338.25 C-274.19558594 338.63929688 -275.32867187 339.02859375 -276.49609375 339.4296875 C-288.1815303 343.40300186 -299.94120424 347.10131126 -311.75 350.6875 C-312.49353729 350.91427429 -313.23707458 351.14104858 -314.00314331 351.37469482 C-316.13003323 352.02257957 -318.25811907 352.66635153 -320.38671875 353.30859375 C-321.62510498 353.68298584 -322.86349121 354.05737793 -324.1394043 354.44311523 C-327.0625 355.25 -327.0625 355.25 -329.0625 355.25 C-328.18761788 301.88219077 -302.60601736 242.41030196 -270.5 200.44140625 C-267.94730211 197.09917199 -265.50693635 193.67221089 -263.0625 190.25 C-278.9025 187.775 -278.9025 187.775 -295.0625 185.25 C-294.10196673 180.44733364 -292.53428047 176.8648486 -290.25 172.625 C-289.85546631 171.88789795 -289.46093262 171.1507959 -289.05444336 170.39135742 C-276.10688471 146.6021232 -260.03772814 124.69850488 -241.5546875 104.9296875 C-239.27212532 102.4753965 -237.06787641 99.97168013 -234.875 97.4375 C-231.90223973 94.08115775 -228.78445805 91.12570592 -225.359375 88.23828125 C-223.08499277 86.26947078 -220.90736854 84.21612402 -218.72851562 82.14282227 C-213.03065969 76.74946502 -207.09917373 71.77790089 -200.875 67 C-200.13193604 66.42685059 -199.38887207 65.85370117 -198.62329102 65.26318359 C-197.92905029 64.73805176 -197.23480957 64.21291992 -196.51953125 63.671875 C-195.90053955 63.20362305 -195.28154785 62.73537109 -194.64379883 62.25292969 C-193.0625 61.25 -193.0625 61.25 -191.0625 61.25 C-192.05977274 64.25523443 -193.06483613 67.25677038 -194.09765625 70.25 C-194.43667969 71.24 -194.77570313 72.23 -195.125 73.25 C-195.46660156 74.24 -195.80820312 75.23 -196.16015625 76.25 C-201.65986808 94.53475621 -197.85457202 114.53084566 -189.046875 131.0546875 C-184.10314956 139.01525327 -177.74463264 144.9885579 -170.0625 150.25 C-170.53300781 149.12464844 -171.00351562 147.99929688 -171.48828125 146.83984375 C-180.00002576 126.06298304 -184.64840353 103.17307805 -175.99609375 81.58984375 C-171.20089192 71.09737243 -164.60584761 64.91619825 -154.0625 60.25 C-140.08003518 56.1980405 -125.17993788 59.82642012 -112.75 66.5 C-111.18045866 67.40455735 -109.61506016 68.3165971 -108.0625 69.25 C-113.21697856 56.74360728 -122.02095163 47.40300202 -134.0625 41.25 C-137.01912356 40.01925239 -139.97048419 39.07376406 -143.0625 38.25 C-144.41675997 37.854486 -145.77093456 37.45867947 -147.125 37.0625 C-148.094375 36.794375 -149.06375 36.52625 -150.0625 36.25 C-125.13151017 15.72600332 -81.95709539 8.06474214 -51.0625 3.25 C-50.02383789 3.08628906 -48.98517578 2.92257813 -47.91503906 2.75390625 C-31.95017185 0.36386736 -16.11004933 -0.01111679 0 0 Z M23.9375 267.8125 C23.26017822 268.31330078 22.58285645 268.81410156 21.88500977 269.33007812 C19.02959674 271.48689314 16.93923929 273.24739107 14.9375 276.25 C15.38963867 277.09892822 15.84177734 277.94785645 16.30761719 278.82250977 C18.43542778 282.81854409 20.56179707 286.81534413 22.6875 290.8125 C23.07265778 291.53674164 23.45781555 292.26098328 23.85464478 293.00717163 C29.28546183 303.22267385 34.68414261 313.45340999 40.00488281 323.72680664 C43.23260847 329.94752513 46.5617732 336.10838818 49.9375 342.25 C77.55972404 343.9221178 102.39540525 325.7684729 123.6875 310.25 C124.4192041 309.71729492 125.1509082 309.18458984 125.90478516 308.63574219 C127.40996619 307.5189412 128.89474405 306.37424288 130.3605957 305.20629883 C132.34458265 303.70012285 134.26182845 302.42987817 136.37963867 301.14331055 C140.88895511 298.19658723 145.06347273 295.30226647 146.60540771 289.9175415 C147.55053797 283.30632333 147.12415665 276.70445928 146.75 270.0625 C146.6846923 268.04120241 146.62539392 266.01970125 146.57226562 263.99804688 C146.42995995 259.07694916 146.20630244 254.16574458 145.9375 249.25 C144.95837646 248.87488281 143.97925293 248.49976563 142.97045898 248.11328125 C135.67192763 245.28047833 128.68429276 242.37191181 122 238.25 C120.9325354 237.60925537 120.9325354 237.60925537 119.84350586 236.95556641 C114.97420598 233.9958288 110.44072608 230.74229777 105.9375 227.25 C77.42167859 227.25 45.66514553 251.72122233 23.9375 267.8125 Z M192.09570312 235.4609375 C191.51369141 235.925 190.93167969 236.3890625 190.33203125 236.8671875 C189.6889502 237.39860352 189.04586914 237.93001953 188.38330078 238.47753906 C186.38428372 239.92621783 184.55864448 240.99315258 182.37841797 242.10839844 C175.36026038 245.93650845 175.36026038 245.93650845 171.13735962 252.46038818 C170.06425961 257.89714956 170.1165388 263.30838141 170.33203125 268.82666016 C170.43746938 271.74915123 170.41437046 274.65047009 170.375 277.57421875 C170.42172581 289.57315183 170.42172581 289.57315183 176.74609375 299.265625 C178.46503644 300.60863436 180.19534414 301.93724295 181.9375 303.25 C190.34755255 312.45780135 197.52962532 323.00910327 202.9375 334.25 C211.26187849 327.13556025 212.96042072 311.63435654 213.9375 301.25 C215.53827536 276.68621816 211.48968873 251.57981459 200.9375 229.25 C198.20664978 229.25 194.27300386 233.70264505 192.09570312 235.4609375 Z M147.3515625 337.05859375 C137.23498549 336.86747454 131.38508978 342.55452344 123.94726562 348.64990234 C118.57714985 352.92538081 112.73695638 356.5894947 106.9375 360.25 C106.35790527 360.61609375 105.77831055 360.9821875 105.18115234 361.359375 C93.82538212 368.42831795 81.94647996 373.16361229 68.9375 376.25 C70.43096898 381.25576007 72.56100643 385.64911373 75 390.23828125 C75.39195557 390.98208542 75.78391113 391.72588959 76.18774414 392.49223328 C77.01251458 394.05406123 77.83962328 395.61465641 78.66894531 397.17407227 C79.94065459 399.56843944 81.20116937 401.96847355 82.4609375 404.36914062 C83.264958 405.88837402 84.06962284 407.40726662 84.875 408.92578125 C85.25213135 409.64550613 85.6292627 410.36523102 86.01782227 411.10676575 C87.80513189 414.80946523 87.80513189 414.80946523 90.9375 417.25 C109.28646121 412.74884732 126.18073119 402.79326042 140.9375 391.25 C144.882439 406.79995371 146.09088231 422.25890604 146.9375 438.25 C166.07059112 424.23307259 177.99979525 405.85407386 184.875 383.3125 C185.08680908 382.62687988 185.29861816 381.94125977 185.5168457 381.23486328 C188.53972432 370.6193688 185.8961494 361.85933803 180.9375 352.25 C177.79558546 346.93915091 174.30691139 341.61941139 169.9375 337.25 C164.39155998 336.92180495 158.86706669 337.08776435 153.31542969 337.22314453 C151.32684422 337.24560289 149.3374478 337.16459416 147.3515625 337.05859375 Z " fill="#360D3A" transform="translate(538.0625,250.75)"/>
<path d="M0 0 C4.5285128 4.0789312 7.34366609 8.55663734 10.375 13.8125 C11.43414137 15.61319038 12.49543589 17.4126156 13.55859375 19.2109375 C14.11659668 20.15549805 14.67459961 21.10005859 15.24951172 22.07324219 C18.84874703 28.09104316 22.5995468 34.01491523 26.33227539 39.95043945 C29.51254915 45.01125143 32.67003227 50.08301022 35.7734375 55.19140625 C36.36970947 56.16924072 36.96598145 57.1470752 37.58032227 58.15454102 C38.71430514 60.01734164 39.84262958 61.88360152 40.96459961 63.75366211 C41.46741455 64.57745361 41.97022949 65.40124512 42.48828125 66.25 C43.14630737 67.34054688 43.14630737 67.34054688 43.81762695 68.453125 C44.20781006 68.96359375 44.59799316 69.4740625 45 70 C47.07889208 70.22251818 47.07889208 70.22251818 48.46118164 68.68994141 C49.02184326 68.08327637 49.58250488 67.47661133 50.16015625 66.8515625 C50.7845459 66.1807666 51.40893555 65.5099707 52.05224609 64.81884766 C52.71562988 64.09487793 53.37901367 63.3709082 54.0625 62.625 C54.74135254 61.89200684 55.42020508 61.15901367 56.11962891 60.40380859 C61.13084135 54.98166479 66.08904265 49.51306706 71 44 C72.49912796 42.33254891 73.99914535 40.66589709 75.5 39 C76.61375 37.7625 76.61375 37.7625 77.75 36.5 C83 30.66666667 88.25 24.83333333 93.5 19 C94.23476563 18.18273437 94.96953125 17.36546875 95.7265625 16.5234375 C97.3012727 14.77556329 98.8796501 13.03098862 100.4609375 11.2890625 C101.65589844 9.97035156 101.65589844 9.97035156 102.875 8.625 C103.95394531 7.43777344 103.95394531 7.43777344 105.0546875 6.2265625 C107.02216634 4.04826835 107.02216634 4.04826835 108.6328125 1.7109375 C109.08398438 1.14632812 109.53515625 0.58171875 110 0 C110.66 0 111.32 0 112 0 C113.49941428 15.48597367 114.63345677 30.97012802 115.5625 46.5 C115.81020627 50.63564532 116.06207552 54.7710074 116.31640625 58.90625 C116.37059219 59.83433472 116.42477814 60.76241943 116.48060608 61.71862793 C116.7570084 66.20824813 117.14571492 70.57395495 118 75 C118.76183594 74.10539062 119.52367187 73.21078125 120.30859375 72.2890625 C155.74122724 30.75292425 155.74122724 30.75292425 167 27 C165.63323409 31.28081399 164.0125644 35.36839744 162.25 39.5 C153.16960887 61.78186129 148.90526171 86.32675039 146.359375 110.15625 C146 113 146 113 145 116 C139.11593935 114.97840469 133.26249636 113.86346019 127.42578125 112.59765625 C106.45745348 108.0547144 85.48156809 104.57081226 64 104 C62.80020508 103.96712891 62.80020508 103.96712891 61.57617188 103.93359375 C-0.30120119 102.51763556 -59.97926019 118.27391356 -114 148 C-116.43124202 145.56875798 -116.96273495 143.63635143 -118.06640625 140.3828125 C-118.66412842 138.65067505 -118.66412842 138.65067505 -119.27392578 136.88354492 C-119.69915527 135.6432251 -120.12438477 134.40290527 -120.5625 133.125 C-124.75150433 121.11177652 -129.39503592 109.43165167 -135 98 C-135.33741211 97.31131836 -135.67482422 96.62263672 -136.02246094 95.91308594 C-140.6054556 86.68897083 -146.00816312 78.3682985 -152 70 C-153.34913566 68.00996783 -154.6759696 66.00691995 -156 64 C-151.0304541 64.61751754 -147.0561213 66.75834787 -142.6875 69.0625 C-141.46244751 69.70819946 -141.46244751 69.70819946 -140.21264648 70.36694336 C-124.67146367 78.78490241 -109.86997555 89.0500193 -96 100 C-96.27634277 98.9879248 -96.55268555 97.97584961 -96.83740234 96.93310547 C-98.47024071 90.38652533 -99.4877355 83.72032544 -100.6015625 77.0703125 C-100.8450993 75.62918314 -101.08886739 74.18809286 -101.33285522 72.74703979 C-101.84071817 69.74346909 -102.34647664 66.73955449 -102.85058594 63.73535156 C-103.4973934 59.88120561 -104.14846461 56.02779509 -104.80095863 52.17460823 C-105.30325528 49.20665388 -105.80385301 46.2384151 -106.30387497 43.27007675 C-106.54349904 41.84820645 -106.78353081 40.42640479 -107.02397537 39.004673 C-107.35829273 37.02569182 -107.69019307 35.04630276 -108.02197266 33.06689453 C-108.21135406 31.94074738 -108.40073547 30.81460022 -108.59585571 29.65432739 C-109 27 -109 27 -109 25 C-103.95016969 26.6566637 -99.9394238 29.61239226 -95.625 32.625 C-94.39172974 33.47747314 -94.39172974 33.47747314 -93.13354492 34.34716797 C-90.41860896 36.22609535 -87.70899905 38.11252461 -85 40 C-83.06650814 41.3438966 -81.13291279 42.68764432 -79.19921875 44.03125 C-75.27847769 46.75700859 -71.35952605 49.48531898 -67.44140625 52.21484375 C-60.3162586 57.17538959 -53.16370563 62.09536061 -46 67 C-44.75186523 67.85464844 -44.75186523 67.85464844 -43.47851562 68.7265625 C-37.98696293 72.48625626 -32.49398109 76.24385594 -27 80 C-26.73517822 78.71351563 -26.47035645 77.42703125 -26.19750977 76.1015625 C-25.07544923 71.06478746 -23.52435936 66.24799913 -21.83984375 61.375 C-21.53370651 60.47756073 -21.22756927 59.58012146 -20.91215515 58.65548706 C-19.92561889 55.7685783 -18.93188871 52.88421244 -17.9375 50 C-17.25747153 48.01715095 -16.57762193 46.03424055 -15.89794922 44.05126953 C-2.46155555 4.92311111 -2.46155555 4.92311111 0 0 Z " fill="#360D3A" transform="translate(485,127)"/>
</svg>
