<?xml version="1.0" encoding="UTF-8"?>
<svg version="1.1" xmlns="http://www.w3.org/2000/svg" width="768" height="432">
<path d="M0 0 C1.64547318 0.00666183 1.64547318 0.00666183 3.32418823 0.01345825 C4.56532379 0.01360931 5.80645935 0.01376038 7.08520508 0.01391602 C8.4446529 0.02413003 9.8040991 0.03456204 11.1635437 0.04519653 C12.55073849 0.04892619 13.93793591 0.05177339 15.32513428 0.05377197 C18.97813171 0.0614122 22.63097037 0.08106388 26.28390503 0.10317993 C30.01068982 0.12363007 33.73750024 0.1327719 37.46432495 0.14285278 C44.77819945 0.16430953 52.09194309 0.19845001 59.4057312 0.24050903 C60.35162807 2.11321493 61.29527308 3.9870583 62.23800659 5.86135864 C62.76374771 6.90472885 63.28948883 7.94809906 63.8311615 9.02308655 C66.36472431 14.20008312 68.60263511 19.49420927 70.8432312 24.80300903 C71.63413187 26.66229334 72.42504345 28.52157303 73.21636963 30.38067627 C74.05188893 32.34472846 74.88586675 34.30943025 75.71969604 36.27420044 C78.2185958 42.15796203 80.74097578 48.0316525 83.26153564 53.90615845 C84.82354216 57.547162 86.38413335 61.18877206 87.9447937 64.83035278 C88.45271706 66.01541916 88.45271706 66.01541916 88.97090149 67.22442627 C91.55040834 73.24331216 94.12829479 79.26289103 96.70582581 85.28262329 C99.31366696 91.37294919 101.92205701 97.46303992 104.5307312 103.55300903 C104.79263622 104.16445518 105.05454124 104.77590134 105.32438278 105.40587616 C111.42783096 119.65457511 117.53991064 133.89910179 123.7182312 148.11550903 C127.73817035 157.37784044 131.74936234 166.64367941 135.7182312 175.92800903 C136.19365356 177.02935181 136.66907593 178.13069458 137.15890503 179.26541138 C137.58711548 180.27168579 138.01532593 181.27796021 138.45651245 182.31472778 C138.8346106 183.19733276 139.21270874 184.07993774 139.6022644 184.98928833 C140.4057312 187.24050903 140.4057312 187.24050903 140.4057312 190.24050903 C138.68771362 191.67581177 138.68771362 191.67581177 136.26119995 193.17410278 C135.36634888 193.73436157 134.4714978 194.29462036 133.54953003 194.87185669 C132.57395142 195.46788696 131.5983728 196.06391724 130.5932312 196.67800903 C129.59509399 197.29982056 128.59695679 197.92163208 127.568573 198.56228638 C125.50868244 199.84532541 123.4462348 201.12426776 121.38131714 202.39920044 C117.14043701 205.02347989 112.93002267 207.69491005 108.7182312 210.36550903 C107.16252392 211.34772715 105.60653461 212.32949869 104.05026245 213.31082153 C99.33413354 216.2853507 94.61981275 219.26273656 89.9057312 222.24050903 C88.3224056 223.24052128 86.73907227 224.24052128 85.1557312 225.24050903 C84.3719812 225.73550903 83.5882312 226.23050903 82.7807312 226.74050903 C80.4057312 228.24050903 78.0307312 229.74050903 75.6557312 231.24050903 C74.8714978 231.7358313 74.0872644 232.23115356 73.27926636 232.7414856 C71.70087775 233.73832843 70.12242754 234.73507372 68.54391479 235.73171997 C63.68458744 238.8000295 58.82769174 241.87214567 53.97238159 244.94680786 C51.58927796 246.45349362 49.20286609 247.95481588 46.81588745 249.45535278 C44.01643853 251.21630624 41.23347528 252.99873572 38.46432495 254.80691528 C37.29899797 255.55567172 36.13363601 256.30437374 34.9682312 257.05300903 C33.97952026 257.69882935 32.99080933 258.34464966 31.97213745 259.01004028 C28.99171283 260.43901099 28.42147423 260.28035913 25.4057312 259.24050903 C23.58834839 258.26345825 23.58834839 258.26345825 21.7026062 257.04519653 C20.98226196 256.58451782 20.26191772 256.12383911 19.51974487 255.64920044 C18.73962036 255.14308228 17.95949585 254.63696411 17.1557312 254.11550903 C15.43874792 253.01582491 13.72127685 251.91690211 12.00338745 250.81863403 C11.09347046 250.23533325 10.18355347 249.65203247 9.24606323 249.05105591 C4.38484409 245.95231075 -0.5130489 242.91255711 -5.4067688 239.86550903 C-18.98688265 231.39102578 -32.48831981 222.79573222 -45.96536255 214.15847778 C-48.13331206 212.76912484 -50.30128074 211.37980182 -52.4692688 209.99050903 C-53.51929077 209.31753784 -54.56931274 208.64456665 -55.65115356 207.95120239 C-62.9630387 203.27032878 -70.30470475 198.64068785 -77.6802063 194.06082153 C-79.67066254 192.81745342 -81.64154047 191.54232792 -83.5942688 190.24050903 C-82.99806978 184.67598481 -81.00640519 180.12209295 -78.75442505 175.06863403 C-78.36090851 174.17044449 -77.96739197 173.27225494 -77.56195068 172.34684753 C-76.71119891 170.40691825 -75.85738941 168.46832764 -75.00085449 166.53094482 C-73.17296613 162.39610638 -71.35996627 158.25479728 -69.54618835 154.11375427 C-68.60994261 151.97645889 -67.67295387 149.83948884 -66.73524475 147.70283508 C-62.19168751 137.34471456 -57.72724277 126.95352218 -53.2817688 116.55300903 C-52.53540437 114.80843804 -51.78898526 113.06389045 -51.04251099 111.31936646 C-49.58884667 107.9215662 -48.13578261 104.52351011 -46.68313599 101.12527466 C-43.73787929 94.23629981 -40.78552042 87.35037114 -37.83328247 80.46438599 C-36.91414489 78.32021602 -35.99535617 76.17589692 -35.07669067 74.03152466 C-32.27655735 67.49568935 -29.47477786 60.96057456 -26.66723633 54.42791748 C-25.35943835 51.38471853 -24.0523752 48.34120442 -22.74557495 45.2975769 C-22.10796192 43.81266655 -21.4701477 42.32784256 -20.8321228 40.84310913 C-16.31306797 30.32338559 -11.86202794 19.77910478 -7.5617981 9.16751099 C-7.19481812 8.27249878 -6.82783813 7.37748657 -6.44973755 6.45535278 C-6.13673706 5.68312378 -5.82373657 4.91089478 -5.50125122 4.11526489 C-4.09793729 1.21457911 -3.25294938 0.30157388 0 0 Z " fill="#1198FE" transform="translate(356.5942687988281,42.759490966796875)"/>
<path d="M0 0 C0.66 0 1.32 0 2 0 C4.42800557 6.35112664 6.84829126 12.70515512 9.26318359 19.0612793 C10.0859432 21.22406843 10.91048028 23.38618224 11.73681641 25.54760742 C12.92295675 28.65108026 14.10272357 31.75691042 15.28125 34.86328125 C15.83903137 36.31653557 15.83903137 36.31653557 16.40808105 37.79914856 C16.74843384 38.6998558 17.08878662 39.60056305 17.43945312 40.52856445 C17.7414563 41.32132278 18.04345947 42.11408112 18.35461426 42.93086243 C19 45 19 45 19 48 C7.615 48.495 7.615 48.495 -4 49 C-4.556875 50.7325 -5.11375 52.465 -5.6875 54.25 C-7.09362737 58.47824967 -8.61995456 62.59239398 -10.375 66.6875 C-13.55639707 74.33800249 -16.24237944 82.18674175 -19 90 C-0.85 90 17.3 90 36 90 C37.98 95.61 39.96 101.22 42 107 C42.66 108.32 43.32 109.64 44 111 C66.77 111 89.54 111 113 111 C113 111.99 113 112.98 113 114 C111.28198242 115.43530273 111.28198242 115.43530273 108.85546875 116.93359375 C107.96061768 117.49385254 107.0657666 118.05411133 106.14379883 118.63134766 C105.16822021 119.22737793 104.1926416 119.8234082 103.1875 120.4375 C102.18936279 121.05931152 101.19122559 121.68112305 100.1628418 122.32177734 C98.10295123 123.60481638 96.0405036 124.88375873 93.97558594 126.15869141 C89.73470581 128.78297085 85.52429147 131.45440101 81.3125 134.125 C79.75679272 135.10721811 78.20080341 136.08898966 76.64453125 137.0703125 C71.92840234 140.04484167 67.21408155 143.02222752 62.5 146 C60.9166744 147.00001224 59.33334107 148.00001225 57.75 149 C56.96625 149.495 56.1825 149.99 55.375 150.5 C53 152 50.625 153.5 48.25 155 C47.4657666 155.49532227 46.6815332 155.99064453 45.87353516 156.50097656 C44.29514655 157.4978194 42.71669634 158.49456469 41.13818359 159.49121094 C36.27885624 162.55952047 31.42196054 165.63163664 26.56665039 168.70629883 C24.18354676 170.21298459 21.79713489 171.71430685 19.41015625 173.21484375 C16.61070733 174.97579721 13.82774408 176.75822669 11.05859375 178.56640625 C9.89326677 179.31516269 8.72790481 180.0638647 7.5625 180.8125 C6.57378906 181.45832031 5.58507812 182.10414063 4.56640625 182.76953125 C1.58598163 184.19850196 1.01574303 184.03985009 -2 183 C-3.81738281 182.02294922 -3.81738281 182.02294922 -5.703125 180.8046875 C-6.42346924 180.34400879 -7.14381348 179.88333008 -7.88598633 179.40869141 C-8.66611084 178.90257324 -9.44623535 178.39645508 -10.25 177.875 C-11.96698328 176.77531587 -13.68445435 175.67639308 -15.40234375 174.578125 C-16.31226074 173.99482422 -17.22217773 173.41152344 -18.15966797 172.81054688 C-23.02088711 169.71180172 -27.9187801 166.67204808 -32.8125 163.625 C-46.39261385 155.15051675 -59.89405102 146.55522318 -73.37109375 137.91796875 C-74.44617188 137.22920654 -75.52125 136.54044434 -76.62890625 135.83081055 C-78.77166036 134.45726262 -80.91360485 133.08245077 -83.0546875 131.70629883 C-87.69838004 128.72676691 -92.34877745 125.76759237 -97.06640625 122.90625 C-98.18909912 122.22224121 -98.18909912 122.22224121 -99.33447266 121.52441406 C-100.68682687 120.7049006 -102.04422974 119.89363086 -103.40771484 119.09277344 C-106.99759698 116.91535249 -108.04071005 115.9185799 -110 112 C-87.56 111.67 -65.12 111.34 -42 111 C-39.36 103.74 -36.72 96.48 -34 89 C-32.68 86.03 -31.36 83.06 -30 80 C-29.37841449 78.37626942 -28.77768713 76.74400337 -28.21875 75.09765625 C-27.93636475 74.27555664 -27.65397949 73.45345703 -27.36303711 72.60644531 C-26.93583374 71.34719238 -26.93583374 71.34719238 -26.5 70.0625 C-24.46841478 64.16590849 -22.40935138 58.31276471 -20.02734375 52.546875 C-18.36098984 48.41583792 -16.82725528 44.23485331 -15.28100586 40.05761719 C-13.93877655 36.44732592 -12.55030004 32.86120618 -11.109375 29.2890625 C-8.72299518 23.35493136 -6.48529928 17.36734954 -4.25 11.375 C-3.63318359 9.72564453 -3.63318359 9.72564453 -3.00390625 8.04296875 C-2.00159023 5.36235614 -1.00030769 2.68136254 0 0 Z " fill="#19175C" transform="translate(384,119)"/>
<path d="M0 0 C8.762112 -0.20882215 17.52336398 -0.36858501 26.28742409 -0.46630955 C30.35738823 -0.5132218 34.42564664 -0.57680618 38.49462891 -0.67895508 C42.42404198 -0.77697923 46.3518185 -0.83060252 50.28236008 -0.85389519 C51.77926786 -0.87048544 53.276089 -0.90288738 54.77229691 -0.95157051 C66.47109249 -1.31697173 66.47109249 -1.31697173 70.16488647 1.86479187 C71.73113146 4.17954737 72.88632724 6.44101263 74 9 C74.62567871 9.98863037 75.25135742 10.97726074 75.89599609 11.99584961 C76.43305176 12.87249268 76.97010742 13.74913574 77.5234375 14.65234375 C78.14444336 15.66393555 78.76544922 16.67552734 79.40527344 17.71777344 C80.0552832 18.7802832 80.70529297 19.84279297 81.375 20.9375 C82.42370148 22.64625784 83.4724053 24.35501426 84.52124023 26.06369019 C85.61012031 27.83816483 86.69824575 29.6131 87.78613281 31.38818359 C91.0887839 36.77686378 94.39498212 42.16335929 97.70440674 47.54788208 C98.72759315 49.21352396 99.7493112 50.88006755 100.77099609 52.54663086 C104.50736734 58.64566109 104.50736734 58.64566109 108.453125 64.609375 C110 67 110 67 110 69 C110.66 69 111.32 69 112 69 C112.25942383 68.29472168 112.51884766 67.58944336 112.78613281 66.86279297 C114.09564011 63.77444169 115.6701499 61.05603347 117.421875 58.1953125 C117.75855194 57.64301468 118.09522888 57.09071686 118.44210815 56.52168274 C119.54116834 54.72057867 120.64552335 52.92278668 121.75 51.125 C122.5164728 49.87139488 123.28258213 48.61756745 124.04833984 47.36352539 C125.60765786 44.81079364 127.16887617 42.25923894 128.73144531 39.70849609 C130.82680464 36.28603147 132.91126417 32.85704629 134.9921875 29.42578125 C135.60739258 28.41177246 136.22259766 27.39776367 136.85644531 26.35302734 C137.99425001 24.47731452 139.13165257 22.60135768 140.26855469 20.72509766 C151.11189323 2.88810677 151.11189323 2.88810677 154 0 C156.822052 -0.24050903 156.822052 -0.24050903 160.46923828 -0.22705078 C161.13277313 -0.22734283 161.79630798 -0.22763489 162.47994995 -0.22793579 C164.67686972 -0.22654056 166.87345186 -0.21097067 169.0703125 -0.1953125 C170.59202896 -0.19158305 172.11374781 -0.18873576 173.63546753 -0.18673706 C177.64356092 -0.17909523 181.6515097 -0.15944213 185.6595459 -0.1373291 C189.74827112 -0.11688244 193.83701966 -0.10773788 197.92578125 -0.09765625 C205.95058724 -0.07619667 213.97527564 -0.04205421 222 0 C218.79936059 3.26162242 215.83018332 5.95808086 211.9296875 8.34765625 C210.9607959 8.94650635 209.9919043 9.54535645 208.99365234 10.16235352 C207.96449707 10.78940186 206.9353418 11.4164502 205.875 12.0625 C203.69767342 13.40585583 201.52059275 14.74961029 199.34375 16.09375 C198.26609375 16.75632813 197.1884375 17.41890625 196.078125 18.1015625 C191.82448513 20.72500028 187.59695828 23.388472 183.375 26.0625 C182.61944824 26.54017822 181.86389648 27.01785645 181.08544922 27.51000977 C174.11364745 31.92057623 167.15584005 36.35313646 160.19750977 40.78491211 C153.47595662 45.06462566 146.7484828 49.33480528 140.00341797 53.57739258 C135.90933291 56.15365568 131.83058088 58.7508152 127.76953125 61.37890625 C126.9086792 61.93239746 126.04782715 62.48588867 125.16088867 63.05615234 C123.51245737 64.11659501 121.86784975 65.18301354 120.2277832 66.25634766 C119.11342896 66.97056885 119.11342896 66.97056885 117.9765625 67.69921875 C117.32768066 68.12033936 116.67879883 68.54145996 116.01025391 68.9753418 C113.60841334 70.19959791 111.69052913 70.76614365 109 71 C106.97729492 70.15820312 106.97729492 70.15820312 104.98046875 68.78125 C104.21814941 68.26892822 103.45583008 67.75660645 102.67041016 67.22875977 C101.8510498 66.65826904 101.03168945 66.08777832 100.1875 65.5 C98.38823165 64.28811537 96.58738224 63.07857561 94.78515625 61.87109375 C93.84043457 61.23413574 92.89571289 60.59717773 91.92236328 59.94091797 C87.05598402 56.70886157 82.09019279 53.63969654 77.125 50.5625 C63.55894685 42.11916342 50.08201939 33.53988703 36.62890625 24.91796875 C35.55382812 24.22912598 34.47875 23.5402832 33.37109375 22.83056641 C31.22863644 21.45736987 29.08669823 20.08336307 26.9453125 18.70849609 C22.29562526 15.72768304 17.63971369 12.76217084 12.93359375 9.87109375 C11.81090088 9.18031738 11.81090088 9.18031738 10.66552734 8.47558594 C9.31134868 7.6461633 7.95383443 6.82214981 6.59228516 6.00488281 C3.61474204 4.18249871 1.97268367 2.9590255 0 0 Z " fill="#1E1A5D" transform="translate(274,232)"/>
<path d="M0 0 C73.92 0 147.84 0 224 0 C224 6.27 224 12.54 224 19 C150.08 19 76.16 19 0 19 C0 12.73 0 6.46 0 0 Z " fill="#D8D9DB" transform="translate(273,391)"/>
<path d="M0 0 C27.72 0 55.44 0 84 0 C82.40166285 3.99584288 80.80113402 7.17431849 78.578125 10.8046875 C78.24149338 11.35689468 77.90486176 11.90910187 77.55802917 12.4780426 C76.45889843 14.27922259 75.35448537 16.07709947 74.25 17.875 C73.48278548 19.13006433 72.71594389 20.38535671 71.94946289 21.64086914 C70.38950183 24.19512074 68.827612 26.74817666 67.26416016 29.30029297 C64.56755025 33.70381706 61.88582717 38.11634721 59.20507812 42.52954102 C57.48763118 45.3550259 55.7657235 48.17774916 54.04296875 51 C52.15486194 54.09506488 50.2808164 57.19751028 48.42578125 60.3125 C47.86322632 61.24944702 47.86322632 61.24944702 47.28930664 62.20532227 C46.33912135 63.78896442 45.39576565 65.37669918 44.453125 66.96484375 C43.97359375 67.63644531 43.4940625 68.30804688 43 69 C42.34 69 41.68 69 41 69 C39.55810547 67.02587891 39.55810547 67.02587891 37.8671875 64.2265625 C37.23369385 63.18669189 36.6002002 62.14682129 35.94750977 61.07543945 C35.25658669 59.92534492 34.56575243 58.77519703 33.875 57.625 C33.16082822 56.44770348 32.44589232 55.27087018 31.73022461 54.09448242 C30.23602416 51.6371659 28.74519097 49.17785071 27.25634766 46.71728516 C24.40073572 42.00456462 21.505179 37.31681306 18.60986328 32.62841797 C15.3969861 27.42482891 12.19777232 22.21288074 9 17 C8.48163574 16.15614746 7.96327148 15.31229492 7.42919922 14.44287109 C6.11433349 12.29831837 4.80563095 10.15018337 3.5 8 C3.13205322 7.40098877 2.76410645 6.80197754 2.38500977 6.18481445 C0 2.23161169 0 2.23161169 0 0 Z " fill="#1095FD" transform="translate(343,232)"/>
<path d="M0 0 C1.07314453 -0.02900391 2.14628906 -0.05800781 3.25195312 -0.08789062 C9.71263181 -0.13932285 15.18941191 0.22272938 20.4375 4.3125 C23.68183333 8.41651833 24.76147156 12.14602734 24.5625 17.375 C23.79318768 22.72709754 21.22559414 25.66116993 17.4375 29.3125 C18.02660156 30.43269531 18.61570312 31.55289062 19.22265625 32.70703125 C19.98229489 34.17941725 20.7413809 35.65208845 21.5 37.125 C21.88994141 37.86298828 22.27988281 38.60097656 22.68164062 39.36132812 C23.22788086 40.42963867 23.22788086 40.42963867 23.78515625 41.51953125 C24.12554932 42.1741333 24.46594238 42.82873535 24.81665039 43.50317383 C25.4375 45.3125 25.4375 45.3125 24.4375 48.3125 C20.4775 48.3125 16.5175 48.3125 12.4375 48.3125 C11.09930502 45.6898768 9.7667849 43.06463401 8.4375 40.4375 C8.0559375 39.69113281 7.674375 38.94476563 7.28125 38.17578125 C6.9203125 37.46035156 6.559375 36.74492187 6.1875 36.0078125 C5.85234375 35.34797363 5.5171875 34.68813477 5.171875 34.00830078 C4.4375 32.3125 4.4375 32.3125 4.4375 30.3125 C2.7875 30.3125 1.1375 30.3125 -0.5625 30.3125 C-0.5625 36.2525 -0.5625 42.1925 -0.5625 48.3125 C-9.05859375 48.41015625 -9.05859375 48.41015625 -11.5625 48.3125 C-13.13550328 46.73949672 -12.68975504 45.17565955 -12.69189453 42.9921875 C-12.69504669 42.07453613 -12.69819885 41.15688477 -12.70144653 40.21142578 C-12.6994223 39.21353027 -12.69739807 38.21563477 -12.6953125 37.1875 C-12.69626923 36.17026855 -12.69722595 35.15303711 -12.69821167 34.10498047 C-12.69889361 31.94954364 -12.69703835 29.79410478 -12.69287109 27.63867188 C-12.68752305 24.32677629 -12.69281563 21.01501633 -12.69921875 17.703125 C-12.69855797 15.61458303 -12.69727681 13.52604115 -12.6953125 11.4375 C-12.69733673 10.43960449 -12.69936096 9.44170898 -12.70144653 8.41357422 C-12.69829437 7.49592285 -12.69514221 6.57827148 -12.69189453 5.6328125 C-12.69109894 4.82086426 -12.69030334 4.00891602 -12.68948364 3.17236328 C-12.34122569 -1.92838954 -3.80632845 0.03344753 0 0 Z M-0.5625 11.3125 C-0.5625 14.2825 -0.5625 17.2525 -0.5625 20.3125 C1.04082791 20.39371924 2.64534026 20.45179134 4.25 20.5 C5.14332031 20.53480469 6.03664063 20.56960938 6.95703125 20.60546875 C9.47887643 20.51430807 9.47887643 20.51430807 11.2734375 18.96484375 C12.71410963 17.28994306 12.71410963 17.28994306 12.25 14.6875 C11.69105766 12.14697997 11.69105766 12.14697997 9.4375 11.3125 C7.73047265 11.24253986 6.02081997 11.22809846 4.3125 11.25 C3.40242188 11.25902344 2.49234375 11.26804687 1.5546875 11.27734375 C0.50667969 11.29474609 0.50667969 11.29474609 -0.5625 11.3125 Z " fill="#291F61" transform="translate(360.5625,322.6875)"/>
<path d="M0 0 C25.08 0 50.16 0 76 0 C76 5.94 76 11.88 76 18 C51.25 18 26.5 18 1 18 C0.67 12.06 0.34 6.12 0 0 Z " fill="#D60930" transform="translate(421,391)"/>
<path d="M0 0 C24.75 0 49.5 0 75 0 C75 5.94 75 11.88 75 18 C50.25 18 25.5 18 0 18 C0 12.06 0 6.12 0 0 Z " fill="#05A148" transform="translate(273,391)"/>
<path d="M0 0 C5.259375 -0.020625 10.51875 -0.04125 15.9375 -0.0625 C17.599021 -0.071604 19.26054199 -0.08070801 20.97241211 -0.09008789 C22.26928955 -0.09258545 23.56616699 -0.09508301 24.90234375 -0.09765625 C25.93107605 -0.1053302 25.93107605 -0.1053302 26.98059082 -0.11315918 C28.65415231 -0.11347054 30.3275958 -0.06222837 32 0 C33 1 33 1 33.1328125 3.03125 C33.13023437 3.8459375 33.12765625 4.660625 33.125 5.5 C33.12886719 6.72203125 33.12886719 6.72203125 33.1328125 7.96875 C33 10 33 10 32 11 C30.5112814 11.08669432 29.018555 11.10703494 27.52734375 11.09765625 C26.62822266 11.09443359 25.72910156 11.09121094 24.80273438 11.08789062 C23.85720703 11.07951172 22.91167969 11.07113281 21.9375 11.0625 C20.98810547 11.05798828 20.03871094 11.05347656 19.06054688 11.04882812 C16.70696935 11.0370011 14.35351523 11.02052025 12 11 C12 13.64 12 16.28 12 19 C17.61 19 23.22 19 29 19 C29 22.3 29 25.6 29 29 C23.39 29 17.78 29 12 29 C12 31.64 12 34.28 12 37 C12.60062256 36.99476318 13.20124512 36.98952637 13.82006836 36.98413086 C16.52586838 36.96341986 19.23165177 36.95035875 21.9375 36.9375 C22.88302734 36.92912109 23.82855469 36.92074219 24.80273438 36.91210938 C26.15141602 36.90727539 26.15141602 36.90727539 27.52734375 36.90234375 C28.35999756 36.89710693 29.19265137 36.89187012 30.05053711 36.88647461 C32 37 32 37 33 38 C33.0979057 39.49738124 33.12974864 40.99942892 33.125 42.5 C33.12886719 43.72203125 33.12886719 43.72203125 33.1328125 44.96875 C33 47 33 47 32 48 C29.62458949 48.08838648 27.2776642 48.11537523 24.90234375 48.09765625 C23.60546631 48.09515869 22.30858887 48.09266113 20.97241211 48.09008789 C19.31089111 48.08098389 17.64937012 48.07187988 15.9375 48.0625 C10.678125 48.041875 5.41875 48.02125 0 48 C0 32.16 0 16.32 0 0 Z " fill="#24195D" transform="translate(406,323)"/>
<path d="M0 0 C5.259375 -0.020625 10.51875 -0.04125 15.9375 -0.0625 C17.599021 -0.071604 19.26054199 -0.08070801 20.97241211 -0.09008789 C22.26928955 -0.09258545 23.56616699 -0.09508301 24.90234375 -0.09765625 C25.93107605 -0.1053302 25.93107605 -0.1053302 26.98059082 -0.11315918 C28.65415231 -0.11347054 30.3275958 -0.06222837 32 0 C33 1 33 1 33.1328125 3.03125 C33.13023437 3.8459375 33.12765625 4.660625 33.125 5.5 C33.12886719 6.72203125 33.12886719 6.72203125 33.1328125 7.96875 C33 10 33 10 32 11 C30.5112814 11.08669432 29.018555 11.10703494 27.52734375 11.09765625 C26.62822266 11.09443359 25.72910156 11.09121094 24.80273438 11.08789062 C23.85720703 11.07951172 22.91167969 11.07113281 21.9375 11.0625 C20.98810547 11.05798828 20.03871094 11.05347656 19.06054688 11.04882812 C16.70696935 11.0370011 14.35351523 11.02052025 12 11 C12 13.64 12 16.28 12 19 C17.61 19 23.22 19 29 19 C29 22.3 29 25.6 29 29 C23.39 29 17.78 29 12 29 C12 31.64 12 34.28 12 37 C12.60062256 36.99476318 13.20124512 36.98952637 13.82006836 36.98413086 C16.52586838 36.96341986 19.23165177 36.95035875 21.9375 36.9375 C22.88302734 36.92912109 23.82855469 36.92074219 24.80273438 36.91210938 C26.15141602 36.90727539 26.15141602 36.90727539 27.52734375 36.90234375 C28.35999756 36.89710693 29.19265137 36.89187012 30.05053711 36.88647461 C32 37 32 37 33 38 C33.0979057 39.49738124 33.12974864 40.99942892 33.125 42.5 C33.12886719 43.72203125 33.12886719 43.72203125 33.1328125 44.96875 C33 47 33 47 32 48 C29.62458949 48.08838648 27.2776642 48.11537523 24.90234375 48.09765625 C23.60546631 48.09515869 22.30858887 48.09266113 20.97241211 48.09008789 C19.31089111 48.08098389 17.64937012 48.07187988 15.9375 48.0625 C10.678125 48.041875 5.41875 48.02125 0 48 C0 32.16 0 16.32 0 0 Z " fill="#2F2564" transform="translate(312,323)"/>
<path d="M0 0 C2.140625 1.0234375 2.140625 1.0234375 5.265625 3.2109375 C5.760625 4.6959375 5.760625 4.6959375 6.265625 6.2109375 C5.26953125 8.03515625 5.26953125 8.03515625 3.828125 9.8984375 C3.35503906 10.52105469 2.88195312 11.14367187 2.39453125 11.78515625 C2.02199219 12.25566406 1.64945312 12.72617187 1.265625 13.2109375 C0.69714844 12.994375 0.12867188 12.7778125 -0.45703125 12.5546875 C-5.4585969 10.75111792 -9.42399536 9.8719771 -14.734375 10.2109375 C-14.404375 11.8609375 -14.074375 13.5109375 -13.734375 15.2109375 C-12.30544922 15.59185547 -12.30544922 15.59185547 -10.84765625 15.98046875 C-9.59339844 16.32464844 -8.33914063 16.66882813 -7.046875 17.0234375 C-5.18482422 17.52810547 -5.18482422 17.52810547 -3.28515625 18.04296875 C1.30565745 19.55303838 4.35080189 20.85447564 7.078125 24.8984375 C8.96589158 30.1643127 8.99967632 34.20195494 7.078125 39.4609375 C4.13068279 43.93291878 1.2283506 46.15186066 -3.921875 47.5234375 C-12.50106084 49.10269061 -20.18606783 47.5219319 -27.734375 43.2109375 C-28.394375 42.5509375 -29.054375 41.8909375 -29.734375 41.2109375 C-29.46878976 37.35995152 -27.17394152 35.04398249 -24.734375 32.2109375 C-21.68378289 32.65955399 -19.54417347 33.31210853 -16.796875 34.7734375 C-13.42557665 36.35588366 -11.4108403 36.61943364 -7.734375 36.2109375 C-6.744375 35.5509375 -5.754375 34.8909375 -4.734375 34.2109375 C-4.734375 32.8909375 -4.734375 31.5709375 -4.734375 30.2109375 C-5.75917969 30.02917969 -6.78398437 29.84742188 -7.83984375 29.66015625 C-9.2006179 29.40677072 -10.56128973 29.1528353 -11.921875 28.8984375 C-12.59541016 28.78048828 -13.26894531 28.66253906 -13.96289062 28.54101562 C-19.42346487 27.50217467 -23.33147278 26.24272692 -26.546875 21.5859375 C-28.39108014 16.34451237 -28.73178425 11.57322257 -26.546875 6.3984375 C-19.75077519 -1.80375192 -9.98630345 -2.88176185 0 0 Z " fill="#302766" transform="translate(300.734375,323.7890625)"/>
<path d="M0 0 C3.63 0 7.26 0 11 0 C14.3987531 8.26589952 17.44589874 16.63844934 20.42871094 25.06103516 C21.2564295 27.39311497 22.0930269 29.72189693 22.9296875 32.05078125 C23.45888166 33.54147212 23.98754692 35.03235089 24.515625 36.5234375 C24.8905307 37.56097672 24.8905307 37.56097672 25.27301025 38.61947632 C26.45418604 41.98693135 27 44.37846884 27 48 C23.04 48 19.08 48 15 48 C14.01 45.36 13.02 42.72 12 40 C5.07 39.505 5.07 39.505 -2 39 C-2.309375 40.299375 -2.61875 41.59875 -2.9375 42.9375 C-3.875 46.875 -3.875 46.875 -5 48 C-6.85287502 48.07226502 -8.70833878 48.0838122 -10.5625 48.0625 C-11.57441406 48.05347656 -12.58632813 48.04445313 -13.62890625 48.03515625 C-14.41136719 48.02355469 -15.19382812 48.01195312 -16 48 C-15.55590648 39.88238359 -12.53114312 32.64997113 -9.6875 25.125 C-9.19520104 23.80106453 -8.7036592 22.47684728 -8.21289062 21.15234375 C-5.57606608 14.06056026 -2.84383969 7.01165225 0 0 Z M5 18 C4.49384702 19.26839526 3.99530901 20.53983102 3.5 21.8125 C3.2215625 22.52019531 2.943125 23.22789062 2.65625 23.95703125 C1.8470838 26.11841216 1.8470838 26.11841216 2 29 C4.31 29 6.62 29 9 29 C8.01 25.37 7.02 21.74 6 18 C5.67 18 5.34 18 5 18 Z " fill="#2F2565" transform="translate(470,323)"/>
<path d="M0 0 C3.96 0 7.92 0 12 0 C12 15.84 12 31.68 12 48 C8.04 48 4.08 48 0 48 C0 32.16 0 16.32 0 0 Z " fill="#2E2464" transform="translate(389,323)"/>
<path d="M0 0 C1.64547318 0.00666183 1.64547318 0.00666183 3.32418823 0.01345825 C4.56532379 0.01360931 5.80645935 0.01376038 7.08520508 0.01391602 C8.4446529 0.02413003 9.8040991 0.03456204 11.1635437 0.04519653 C12.55073849 0.04892619 13.93793591 0.05177339 15.32513428 0.05377197 C18.97813171 0.0614122 22.63097037 0.08106388 26.28390503 0.10317993 C30.01068982 0.12363007 33.73750024 0.1327719 37.46432495 0.14285278 C44.77819945 0.16430953 52.09194309 0.19845001 59.4057312 0.24050903 C60.35162807 2.11321493 61.29527308 3.9870583 62.23800659 5.86135864 C62.76374771 6.90472885 63.28948883 7.94809906 63.8311615 9.02308655 C66.36471977 14.20007386 68.60274904 19.49416729 70.8432312 24.80300903 C71.62043237 26.63071288 72.39764627 28.45841136 73.17530823 30.28591919 C73.72375024 31.57542066 74.27168585 32.86513761 74.81913757 34.15505981 C77.22695427 39.82840304 79.65519923 45.49285746 82.08744812 51.15576172 C84.62472359 57.06327558 87.15456028 62.97394517 89.68226624 68.88555908 C91.44877215 73.01404277 93.22464966 77.13829723 95.01020813 81.25857544 C96.31412988 84.27105536 97.60894403 87.28745245 98.9057312 90.30300903 C99.3808313 91.39113892 99.8559314 92.4792688 100.34542847 93.60037231 C100.76751587 94.58634399 101.18960327 95.57231567 101.6244812 96.58816528 C101.99508667 97.44418335 102.36569214 98.30020142 102.74752808 99.18215942 C103.4057312 101.24050903 103.4057312 101.24050903 102.4057312 103.24050903 C99.96256868 99.39651519 98.15182856 95.49273061 96.40963745 91.28738403 C95.99741188 90.29789764 95.99741188 90.29789764 95.57685852 89.28842163 C94.70364216 87.19062148 93.8356982 85.09069231 92.9682312 82.99050903 C91.82533471 80.23462021 90.68031978 77.47961575 89.53463745 74.72488403 C89.2590802 74.06143982 88.98352295 73.39799561 88.69961548 72.71444702 C86.9603664 68.5375971 85.1644111 64.39218214 83.30685425 60.26687622 C81.64796198 56.53650347 80.09924662 52.75953531 78.5307312 48.99050903 C76.27183452 43.58721149 73.97283978 38.22326784 71.4682312 32.92800903 C68.63292727 26.88040786 66.07057869 20.7299855 63.5307312 14.55300903 C63.12475708 13.57098511 62.71878296 12.58896118 62.30050659 11.57717896 C61.73770996 10.19816406 61.73770996 10.19816406 61.1635437 8.79129028 C60.8246814 7.96282593 60.48581909 7.13436157 60.13668823 6.28079224 C59.4057312 4.24050903 59.4057312 4.24050903 59.4057312 2.24050903 C39.2757312 2.57050903 19.1457312 2.90050903 -1.5942688 3.24050903 C-6.19482914 13.15394323 -6.19482914 13.15394323 -10.5942688 23.14285278 C-11.0892688 24.30107544 -11.5842688 25.4592981 -12.0942688 26.65261841 C-12.5892688 27.81599731 -13.0842688 28.97937622 -13.5942688 30.17800903 C-15.0942688 33.69168091 -15.0942688 33.69168091 -16.5942688 37.20535278 C-17.08153442 38.34859009 -17.56880005 39.49182739 -18.0708313 40.66970825 C-20.57101403 46.52991221 -23.08269476 52.38517939 -25.5942688 58.24050903 C-26.2542688 58.24050903 -26.9142688 58.24050903 -27.5942688 58.24050903 C-25.09629701 50.14848774 -21.75251124 42.4792567 -18.3442688 34.74050903 C-17.17391651 32.06967274 -16.00653372 29.39754831 -14.84036255 26.72488403 C-14.55654221 26.07497498 -14.27272186 25.42506592 -13.9803009 24.75546265 C-11.41283724 18.85935743 -8.95358123 12.92206856 -6.59915161 6.93777466 C-3.97058533 0.36810435 -3.97058533 0.36810435 0 0 Z " fill="#65BCE3" transform="translate(356.5942687988281,42.759490966796875)"/>
<path d="M0 0 C5.259375 -0.020625 10.51875 -0.04125 15.9375 -0.0625 C17.599021 -0.071604 19.26054199 -0.08070801 20.97241211 -0.09008789 C22.26928955 -0.09258545 23.56616699 -0.09508301 24.90234375 -0.09765625 C25.93107605 -0.1053302 25.93107605 -0.1053302 26.98059082 -0.11315918 C28.65415231 -0.11347054 30.3275958 -0.06222837 32 0 C33 1 33 1 33.1328125 3.03125 C33.13023437 3.8459375 33.12765625 4.660625 33.125 5.5 C33.12886719 6.72203125 33.12886719 6.72203125 33.1328125 7.96875 C33 10 33 10 32 11 C30.5112814 11.08669432 29.018555 11.10703494 27.52734375 11.09765625 C26.62822266 11.09443359 25.72910156 11.09121094 24.80273438 11.08789062 C23.85720703 11.07951172 22.91167969 11.07113281 21.9375 11.0625 C20.98810547 11.05798828 20.03871094 11.05347656 19.06054688 11.04882812 C16.70696935 11.0370011 14.35351523 11.02052025 12 11 C12 13.64 12 16.28 12 19 C17.61 19 23.22 19 29 19 C29 22.3 29 25.6 29 29 C23.39 29 17.78 29 12 29 C12 31.64 12 34.28 12 37 C12.60062256 36.99476318 13.20124512 36.98952637 13.82006836 36.98413086 C16.52586838 36.96341986 19.23165177 36.95035875 21.9375 36.9375 C22.88302734 36.92912109 23.82855469 36.92074219 24.80273438 36.91210938 C26.15141602 36.90727539 26.15141602 36.90727539 27.52734375 36.90234375 C28.35999756 36.89710693 29.19265137 36.89187012 30.05053711 36.88647461 C32 37 32 37 33 38 C33.0979057 39.49738124 33.12974864 40.99942892 33.125 42.5 C33.12886719 43.72203125 33.12886719 43.72203125 33.1328125 44.96875 C33 47 33 47 32 48 C29.62458949 48.08838648 27.2776642 48.11537523 24.90234375 48.09765625 C23.60546631 48.09515869 22.30858887 48.09266113 20.97241211 48.09008789 C19.31089111 48.08098389 17.64937012 48.07187988 15.9375 48.0625 C10.678125 48.041875 5.41875 48.02125 0 48 C0 32.16 0 16.32 0 0 Z M1 1 C1 16.18 1 31.36 1 47 C10.9 47 20.8 47 31 47 C31 44.36 31 41.72 31 39 C24.4 39 17.8 39 11 39 C11 35.37 11 31.74 11 28 C16.61 28 22.22 28 28 28 C28 25.36 28 22.72 28 20 C22.39 20 16.78 20 11 20 C11 16.37 11 12.74 11 9 C17.6 9 24.2 9 31 9 C31 6.36 31 3.72 31 1 C21.1 1 11.2 1 1 1 Z " fill="#4E4678" transform="translate(406,323)"/>
<path d="M0 0 C8.87913061 0.01152921 17.75826239 0.01676141 26.63739872 0.021703 C44.7809284 0.03192956 62.92444401 0.04930754 81.06796217 0.07202661 C80.73796217 1.06202661 80.40796217 2.05202661 80.06796217 3.07202661 C61.16326772 3.09586571 42.2585765 3.11324664 23.35386992 3.12383878 C14.56715582 3.12889745 5.78045137 3.13575614 -3.00625658 3.14746606 C-49.32503265 3.2079802 -95.62056353 2.92650084 -141.93203783 2.07202661 C-141.93203783 1.74202661 -141.93203783 1.41202661 -141.93203783 1.07202661 C-94.61834433 0.197615 -47.32106443 -0.06262066 0 0 Z " fill="#1754B1" transform="translate(415.9320378303528,229.92797338962555)"/>
<path d="M0 0 C1.09828125 -0.01224609 2.1965625 -0.02449219 3.328125 -0.03710938 C4.3903125 -0.03904297 5.4525 -0.04097656 6.546875 -0.04296875 C7.51979492 -0.04707764 8.49271484 -0.05118652 9.49511719 -0.05541992 C12.42082294 0.20256282 14.5936027 0.96610183 17.25 2.1875 C14.00201257 3.27016248 11.89103173 3.22186186 8.48828125 3.06640625 C6.97681519 3.00175171 6.97681519 3.00175171 5.43481445 2.93579102 C4.15695068 2.87447998 2.87908691 2.81316895 1.5625 2.75 C-2.500625 2.564375 -6.56375 2.37875 -10.75 2.1875 C-10.75 16.7075 -10.75 31.2275 -10.75 46.1875 C-7.78 46.1875 -4.81 46.1875 -1.75 46.1875 C-1.75 40.5775 -1.75 34.9675 -1.75 29.1875 C0.56 29.1875 2.87 29.1875 5.25 29.1875 C5.58 30.8375 5.91 32.4875 6.25 34.1875 C5.59 32.8675 4.93 31.5475 4.25 30.1875 C2.6 30.1875 0.95 30.1875 -0.75 30.1875 C-0.75 36.1275 -0.75 42.0675 -0.75 48.1875 C-9.24609375 48.28515625 -9.24609375 48.28515625 -11.75 48.1875 C-13.32300328 46.61449672 -12.87725504 45.05065955 -12.87939453 42.8671875 C-12.88254669 41.94953613 -12.88569885 41.03188477 -12.88894653 40.08642578 C-12.8869223 39.08853027 -12.88489807 38.09063477 -12.8828125 37.0625 C-12.88376923 36.04526855 -12.88472595 35.02803711 -12.88571167 33.97998047 C-12.88639361 31.82454364 -12.88453835 29.66910478 -12.88037109 27.51367188 C-12.87502305 24.20177629 -12.88031563 20.89001633 -12.88671875 17.578125 C-12.88605797 15.48958303 -12.88477681 13.40104115 -12.8828125 11.3125 C-12.88483673 10.31460449 -12.88686096 9.31670898 -12.88894653 8.28857422 C-12.88579437 7.37092285 -12.88264221 6.45327148 -12.87939453 5.5078125 C-12.87859894 4.69586426 -12.87780334 3.88391602 -12.87698364 3.04736328 C-12.52679397 -2.08168243 -3.81548369 0.00220803 0 0 Z " fill="#595485" transform="translate(360.75,322.8125)"/>
<path d="M0 0 C2.63316144 2.63316144 3.73517804 5.68367666 5.16796875 9.05859375 C5.47948883 9.78181824 5.79100891 10.50504272 6.11196899 11.25018311 C7.14173421 13.64401375 8.16463715 16.04071285 9.1875 18.4375 C9.90608236 20.1119118 10.62508203 21.78614457 11.34448242 23.46020508 C12.83232584 26.92477865 14.3172775 30.39057015 15.79980469 33.85742188 C17.8636338 38.68336305 19.93472023 43.50615725 22.0078125 48.328125 C24.80695079 54.84046363 27.59624952 61.3569431 30.3792572 67.87619019 C32.10440256 71.91450696 33.84024616 75.94798153 35.58634949 79.97727966 C36.39446794 81.84414731 37.19925645 83.71240887 38.00268555 85.58129883 C38.97597467 87.84416032 39.95499424 90.10456866 40.94067383 92.36206055 C41.36243896 93.34730713 41.7842041 94.33255371 42.21875 95.34765625 C42.58935547 96.20367432 42.95996094 97.05969238 43.34179688 97.94165039 C44 100 44 100 43 102 C40.55683748 98.15600616 38.74609736 94.25222157 37.00390625 90.046875 C36.7290892 89.38721741 36.45427216 88.72755981 36.17112732 88.0479126 C35.29791096 85.95011244 34.429967 83.85018327 33.5625 81.75 C32.41960351 78.99411117 31.27458857 76.23910671 30.12890625 73.484375 C29.853349 72.82093079 29.57779175 72.15748657 29.29388428 71.47393799 C27.5546352 67.29708807 25.7586799 63.1516731 23.90112305 59.02636719 C22.24223078 55.29599444 20.69351542 51.51902627 19.125 47.75 C16.86610332 42.34670245 14.56710858 36.9827588 12.0625 31.6875 C9.23862269 25.65644902 6.6671028 19.52969515 4.125 13.375 C3.71902588 12.40135498 3.31305176 11.42770996 2.89477539 10.42456055 C2.33197876 9.05037964 2.33197876 9.05037964 1.7578125 7.6484375 C1.4189502 6.82520996 1.08008789 6.00198242 0.73095703 5.15380859 C0 3 0 3 0 0 Z " fill="#54BDEB" transform="translate(416,44)"/>
<path d="M0 0 C1.5625 1.8125 1.5625 1.8125 3 4 C2.67 4.99 2.34 5.98 2 7 C-1.96 7 -5.92 7 -10 7 C-10.33 5.68 -10.66 4.36 -11 3 C-10.67 3.66 -10.34 4.32 -10 5 C-6.7 5 -3.4 5 0 5 C0 3.35 0 1.7 0 0 Z " fill="#5D5984" transform="translate(383,364)"/>
<path d="M0 0 C3.63 0 7.26 0 11 0 C11.66 1.98 12.32 3.96 13 6 C12.5978125 5.51273437 12.195625 5.02546875 11.78125 4.5234375 C9.5482447 2.61363034 8.40174197 2.59598258 5.5 2.625 C4.33984375 2.61339844 4.33984375 2.61339844 3.15625 2.6015625 C0.54840272 3.08344732 -0.33871866 3.98729376 -2 6 C-1.34 4.02 -0.68 2.04 0 0 Z " fill="#514A7B" transform="translate(470,323)"/>
<path d="M0 0 C1.65 0 3.3 0 5 0 C5 0.66 5 1.32 5 2 C5.66 2 6.32 2 7 2 C7.33 1.34 7.66 0.68 8 0 C8.33 0.99 8.66 1.98 9 3 C6.75 3.75 6.75 3.75 4 4 C1.6875 2.0625 1.6875 2.0625 0 0 Z " fill="#52659B" transform="translate(379,299)"/>
</svg>
